<?xml version="1.0" encoding="utf-8"?>
<!-- Generator: Adobe Illustrator 16.2.0, SVG Export Plug-In . SVG Version: 6.00 Build 0)  -->
<!DOCTYPE svg PUBLIC "-//W3C//DTD SVG 1.1//EN" "http://www.w3.org/Graphics/SVG/1.1/DTD/svg11.dtd">
<svg version="1.1" id="Layer_1" xmlns="http://www.w3.org/2000/svg" xmlns:xlink="http://www.w3.org/1999/xlink" x="0px" y="0px"
	 width="100px" height="100px" viewBox="0 0 100 100" enable-background="new 0 0 100 100" xml:space="preserve">
<circle fill="#E6E6E6" cx="50" cy="50" r="50"/>
<circle fill="#F2F2F2" cx="50" cy="50" r="48.8"/>
<linearGradient id="SVGID_1_" gradientUnits="userSpaceOnUse" x1="331.1025" y1="-320.1011" x2="280.8982" y2="-269.8966" gradientTransform="matrix(1 0 0 -1 -256 -245)">
	<stop  offset="0.0215" style="stop-color:#C9C9C9"/>
	<stop  offset="0.9032" style="stop-color:#F7F7F7"/>
</linearGradient>
<circle fill="url(#SVGID_1_)" cx="50" cy="50" r="35.5"/>
<g enable-background="new    ">
	<path fill="#FF1D25" d="M19.801,25.305c-1.173,1.428-2.23,2.971-3.174,4.628s-1.755,3.433-2.435,5.328
		c-0.68,1.896-1.198,3.917-1.555,6.067s-0.536,4.448-0.536,6.896c0,1.156,0.042,2.367,0.127,3.634
		c0.085,1.266,0.233,2.507,0.446,3.722c0.212,1.215,0.501,2.371,0.867,3.467c0.365,1.097,0.837,2.061,1.415,2.894
		c0.578,0.833,1.274,1.492,2.09,1.977s1.776,0.727,2.881,0.727c1.02,0,1.925-0.336,2.715-1.008c0.79-0.671,1.482-1.551,2.078-2.639
		c-0.544-1.121-1.016-2.294-1.415-3.518s-0.731-2.451-0.994-3.684c-0.264-1.232-0.459-2.452-0.586-3.659
		c-0.127-1.206-0.191-2.345-0.191-3.416c0-0.492,0.013-1.112,0.039-1.86s0.089-1.534,0.191-2.358s0.25-1.653,0.446-2.486
		c0.195-0.832,0.463-1.576,0.803-2.23c0.34-0.654,0.76-1.189,1.262-1.605c0.501-0.417,1.117-0.625,1.848-0.625
		c0.663,0,1.237,0.204,1.721,0.611c0.484,0.408,0.896,0.931,1.236,1.568c0.34,0.638,0.62,1.36,0.841,2.167
		c0.221,0.808,0.395,1.606,0.522,2.396s0.212,1.534,0.255,2.23c0.042,0.697,0.064,1.267,0.064,1.708
		c0,0.969-0.064,2.023-0.191,3.161c-0.127,1.14-0.323,2.316-0.586,3.531s-0.59,2.439-0.981,3.671
		c-0.391,1.232-0.85,2.418-1.376,3.557c0.51,0.799,1.062,1.533,1.657,2.205c0.595,0.671,1.245,1.249,1.95,1.733
		c0.705,0.484,1.457,0.858,2.256,1.122c0.798,0.264,1.648,0.396,2.549,0.396c1.376,0,2.6-0.26,3.671-0.778s1.997-1.22,2.779-2.103
		c0.782-0.885,1.44-1.921,1.976-3.11c0.535-1.189,0.964-2.456,1.287-3.799s0.552-2.728,0.688-4.155
		c0.136-1.428,0.204-2.83,0.204-4.207c0-1.971-0.183-3.938-0.548-5.901c-0.366-1.963-0.901-3.866-1.606-5.711
		c-0.706-1.844-1.581-3.599-2.626-5.265c-1.045-1.665-2.256-3.187-3.633-4.563c-1.377-1.376-2.911-2.574-4.602-3.594
		c-1.691-1.021-3.531-1.819-5.52-2.396l0.51-0.612c2.346,0.527,4.496,1.352,6.45,2.473c1.954,1.122,3.718,2.465,5.29,4.028
		c1.572,1.563,2.948,3.306,4.13,5.227c1.181,1.921,2.167,3.942,2.957,6.067c0.791,2.125,1.385,4.317,1.785,6.577
		c0.399,2.261,0.599,4.504,0.599,6.73c0,1.377-0.106,2.801-0.319,4.271s-0.548,2.906-1.007,4.309
		c-0.459,1.401-1.05,2.728-1.772,3.977s-1.593,2.346-2.613,3.289c-1.02,0.943-2.206,1.69-3.557,2.243
		c-1.351,0.552-2.877,0.828-4.576,0.828c-1.105,0-2.141-0.152-3.11-0.458c-0.969-0.307-1.87-0.735-2.702-1.288
		c-0.833-0.553-1.602-1.211-2.307-1.976c-0.706-0.765-1.347-1.606-1.925-2.523c-0.493,0.73-1.02,1.401-1.581,2.014
		c-0.561,0.611-1.165,1.135-1.81,1.567c-0.646,0.434-1.33,0.77-2.052,1.008c-0.723,0.237-1.483,0.356-2.282,0.356
		c-1.326,0-2.486-0.285-3.48-0.854s-1.844-1.316-2.549-2.243c-0.706-0.927-1.284-1.972-1.733-3.136
		c-0.451-1.164-0.808-2.341-1.071-3.53c-0.264-1.189-0.446-2.342-0.548-3.455c-0.102-1.112-0.153-2.077-0.153-2.894
		c0-5.319,0.896-10.252,2.689-14.799c1.793-4.547,4.44-8.646,7.941-12.301L19.801,25.305z M23.446,44.375
		c0,0.969,0.055,1.997,0.166,3.084c0.11,1.088,0.28,2.201,0.51,3.34s0.514,2.273,0.854,3.403c0.34,1.131,0.748,2.223,1.224,3.276
		c0.289-0.9,0.536-1.827,0.739-2.779c0.204-0.951,0.374-1.882,0.51-2.791s0.234-1.772,0.293-2.588
		c0.059-0.815,0.089-1.546,0.089-2.192c0-0.985-0.047-1.997-0.141-3.034c-0.093-1.036-0.242-1.979-0.446-2.829
		c-0.204-0.85-0.472-1.547-0.803-2.091s-0.735-0.815-1.211-0.815c-0.272,0-0.506,0.127-0.701,0.382s-0.357,0.574-0.484,0.956
		c-0.127,0.383-0.234,0.812-0.318,1.287c-0.085,0.477-0.149,0.939-0.191,1.39c-0.042,0.451-0.068,0.854-0.077,1.211
		C23.45,43.941,23.446,44.205,23.446,44.375z"/>
	<path fill="#FF1D25" d="M69.285,56.28c-0.443,0.646-0.975,1.249-1.594,1.81c-0.621,0.562-1.301,1.046-2.039,1.453
		c-0.74,0.408-1.514,0.731-2.32,0.969c-0.809,0.238-1.619,0.357-2.436,0.357c-1.156,0-2.234-0.149-3.237-0.446
		c-1.003-0.298-1.878-0.752-2.626-1.364c-0.748-0.611-1.334-1.38-1.759-2.307s-0.638-2.01-0.638-3.251
		c0-1.224,0.225-2.366,0.676-3.429c0.45-1.062,1.07-1.988,1.861-2.778c0.79-0.791,1.721-1.415,2.791-1.874s2.219-0.688,3.441-0.688
		c0.578,0,1.117,0.081,1.619,0.242c0.502,0.162,0.939,0.399,1.313,0.714c0.375,0.314,0.668,0.701,0.881,1.16
		c0.211,0.459,0.318,0.985,0.318,1.58c0,0.714-0.145,1.343-0.434,1.887s-0.672,1.02-1.146,1.428
		c-0.477,0.408-1.018,0.748-1.619,1.02c-0.604,0.272-1.232,0.493-1.887,0.663s-1.301,0.293-1.938,0.37
		c-0.639,0.076-1.221,0.114-1.746,0.114h-0.612c0.221,1.547,0.833,2.728,1.835,3.544c1.004,0.815,2.389,1.224,4.156,1.224
		c1.258,0,2.484-0.221,3.684-0.663c1.197-0.441,2.281-1.054,3.25-1.836L69.285,56.28z M56.078,53.145h0.638
		c0.612,0,1.241-0.098,1.886-0.293c0.646-0.195,1.229-0.484,1.748-0.867c0.518-0.383,0.947-0.854,1.287-1.415
		c0.34-0.561,0.51-1.198,0.51-1.912c0-0.696-0.148-1.274-0.447-1.733c-0.297-0.459-0.811-0.688-1.541-0.688
		c-0.748,0-1.381,0.226-1.9,0.676c-0.518,0.45-0.939,1.003-1.262,1.657s-0.557,1.343-0.701,2.064
		c-0.145,0.723-0.217,1.364-0.217,1.925V53.145z"/>
	<path fill="#FF1D25" d="M91.617,56.28c-0.271,0.561-0.611,1.066-1.02,1.517c-0.408,0.451-0.867,0.833-1.377,1.147
		s-1.054,0.557-1.632,0.727c-0.577,0.17-1.181,0.255-1.81,0.255c-1.326,0-2.452-0.322-3.378-0.969
		c-0.927-0.646-1.704-1.487-2.333-2.523c-0.459,0.51-0.965,1.016-1.517,1.517c-0.553,0.501-1.139,0.943-1.759,1.325
		c-0.621,0.383-1.263,0.692-1.925,0.931c-0.663,0.238-1.326,0.357-1.989,0.357c-0.799,0-1.513-0.162-2.141-0.484
		c-0.629-0.323-1.165-0.752-1.606-1.288c-0.442-0.535-0.782-1.146-1.02-1.835c-0.238-0.688-0.357-1.406-0.357-2.154
		c0-1.122,0.251-2.252,0.752-3.391s1.164-2.171,1.989-3.098c0.824-0.927,1.771-1.679,2.842-2.257
		c1.071-0.577,2.184-0.866,3.34-0.866c0.34,0,0.638,0.034,0.893,0.102v-1.07c0-0.493,0.017-1.147,0.051-1.963
		c0.034-0.816,0.103-1.721,0.204-2.716c0.102-0.994,0.233-2.039,0.396-3.136c0.161-1.096,0.373-2.184,0.637-3.263
		s0.574-2.107,0.931-3.085c0.357-0.977,0.773-1.835,1.249-2.575c0.476-0.739,1.021-1.329,1.632-1.771
		c0.612-0.441,1.3-0.663,2.065-0.663c0.9,0,1.631,0.264,2.192,0.791c0.561,0.526,1.002,1.177,1.325,1.95s0.54,1.593,0.65,2.46
		s0.166,1.641,0.166,2.32c0,0.884-0.086,1.907-0.255,3.071c-0.171,1.165-0.408,2.396-0.714,3.697c-0.307,1.3-0.672,2.63-1.097,3.989
		c-0.425,1.36-0.884,2.669-1.377,3.926c-0.493,1.259-1.023,2.427-1.593,3.506c-0.57,1.079-1.144,1.993-1.721,2.74
		c0.221,0.663,0.488,1.275,0.803,1.836s0.684,1.045,1.109,1.453c0.424,0.408,0.908,0.727,1.453,0.956
		c0.543,0.229,1.163,0.344,1.86,0.344c1.598,0,2.906-0.637,3.927-1.912L91.617,56.28z M74.74,57.784
		c0.969,0,1.865-0.187,2.689-0.561s1.576-0.867,2.257-1.479c-0.323-0.629-0.6-1.305-0.829-2.027
		c-0.229-0.722-0.425-1.453-0.586-2.192c-0.162-0.739-0.289-1.482-0.383-2.23s-0.165-1.47-0.217-2.167
		c-0.204-0.221-0.459-0.403-0.765-0.548s-0.68-0.217-1.121-0.217c-0.8,0-1.509,0.217-2.129,0.649
		c-0.621,0.434-1.144,0.978-1.568,1.632s-0.748,1.368-0.969,2.142s-0.331,1.509-0.331,2.205c0,0.646,0.072,1.262,0.217,1.849
		c0.144,0.586,0.378,1.096,0.701,1.529c0.322,0.434,0.734,0.777,1.236,1.033C73.444,57.657,74.043,57.784,74.74,57.784z
		 M81.165,42.08c0,0.612,0,1.321,0,2.129s0.021,1.661,0.063,2.562c0.042,0.901,0.119,1.823,0.229,2.767s0.276,1.857,0.497,2.74
		c0.714-1.376,1.368-2.885,1.963-4.524c0.595-1.641,1.109-3.323,1.543-5.048c0.433-1.726,0.769-3.446,1.007-5.163
		c0.237-1.716,0.356-3.34,0.356-4.869c0-0.322-0.017-0.79-0.051-1.402c-0.034-0.611-0.127-1.219-0.28-1.822
		s-0.383-1.131-0.688-1.581s-0.723-0.676-1.249-0.676c-0.408,0-0.773,0.191-1.097,0.574c-0.322,0.382-0.604,0.892-0.841,1.529
		c-0.238,0.638-0.438,1.364-0.6,2.18c-0.161,0.815-0.297,1.666-0.407,2.55c-0.111,0.884-0.196,1.759-0.255,2.625
		c-0.061,0.867-0.103,1.67-0.128,2.409c-0.025,0.74-0.043,1.377-0.051,1.912C81.169,41.507,81.165,41.876,81.165,42.08z"/>
</g>
</svg>
