<?xml version="1.0" encoding="utf-8"?>
<!-- Generator: Adobe Illustrator 16.2.0, SVG Export Plug-In . SVG Version: 6.00 Build 0)  -->
<!DOCTYPE svg PUBLIC "-//W3C//DTD SVG 1.1//EN" "http://www.w3.org/Graphics/SVG/1.1/DTD/svg11.dtd">
<svg version="1.1" id="Layer_1" xmlns="http://www.w3.org/2000/svg" xmlns:xlink="http://www.w3.org/1999/xlink" x="0px" y="0px"
	 width="100px" height="100px" viewBox="0 0 100 100" enable-background="new 0 0 100 100" xml:space="preserve">
<circle fill="#E6E6E6" cx="50" cy="50" r="50"/>
<circle fill="#F2F2F2" cx="50" cy="50" r="48.8"/>
<linearGradient id="SVGID_1_" gradientUnits="userSpaceOnUse" x1="75.0898" y1="75.0918" x2="24.9081" y2="24.91">
	<stop  offset="2.150540e-002" style="stop-color:#C9C9C9"/>
	<stop  offset="0.9032" style="stop-color:#F7F7F7"/>
</linearGradient>
<circle fill="url(#SVGID_1_)" cx="50" cy="50" r="35.5"/>
<g>
	<path fill="#FF1D25" d="M54.4,25.4c-1.2,1-2.7,1.8-4.3,2.5c-1.6,0.7-3.4,1.3-5.2,1.7c-1.8,0.5-3.6,0.8-5.4,1
		c-1.8,0.2-3.5,0.3-5,0.3c-0.5,0-1.1,0-1.8-0.1c-0.7-0.1-1.5-0.1-2.4-0.2s-1.7-0.2-2.6-0.4c-0.9-0.2-1.7-0.4-2.5-0.6
		c-0.8-0.2-1.5-0.5-2.1-0.9c-0.6-0.3-1.1-0.7-1.4-1.1c-0.2-0.3-0.4-0.6-0.6-1c-0.2-0.4-0.3-0.7-0.3-1.1c0-0.5,0.3-0.7,0.8-0.7
		c0.1,0,0.3,0,0.4,0c0.1,0,0.2,0,0.4,0.1c0.6,0.2,1.3,0.4,1.8,0.6c0.6,0.2,1.2,0.4,1.8,0.6c2.1,0.5,4.1,0.8,6.2,1.1s4.2,0.3,6.3,0.3
		c2.6,0,5.2-0.2,8-0.6c2.7-0.4,5.3-1,7.7-2L54.4,25.4z M35.8,32.9c0,0.1,0,0.3-0.1,0.4c0,0.1-0.1,0.2-0.1,0.3
		c-0.2,0.4-0.3,0.9-0.5,1.3s-0.4,0.9-0.5,1.3c-0.6,1.9-1.1,4.1-1.4,6.4c-0.3,2.4-0.5,4.8-0.6,7.4c0.4,0,0.8,0.1,1.1,0.1
		c0.4,0,0.8,0,1.1,0c0.8,0,1.6,0,2.5-0.1c0.9-0.1,1.8-0.2,2.7-0.3c0.9-0.1,1.7-0.2,2.4-0.4c0.8-0.2,1.4-0.3,1.9-0.5l0.3,0.3
		c-1.5,1-3.3,1.7-5.4,2.2c-2.1,0.5-4.3,0.9-6.8,1c0,2.8,0,5.6,0.2,8.3c0.2,2.7,0.5,5.3,0.8,7.7l-0.4,0.2c-0.5-1.1-0.9-2.3-1.3-3.6
		s-0.7-2.6-0.9-4c-0.3-1.4-0.5-2.8-0.6-4.2s-0.3-2.8-0.4-4.2c-0.3,0-0.7,0-1,0c-0.3,0-0.7,0-1.1,0c-0.3,0-0.7,0-1.1,0
		c-0.4,0-0.8-0.1-1.1-0.2c-0.4-0.1-0.7-0.3-0.9-0.5c-0.2-0.2-0.4-0.6-0.4-1c0-0.3,0.1-0.5,0.2-0.7c0.1-0.2,0.3-0.4,0.5-0.5
		c0.2-0.1,0.4-0.2,0.7-0.3s0.5-0.1,0.8-0.1c0.1,0,0.3,0,0.4,0c0.1,0,0.3,0,0.4,0.1c0.4,0.1,0.8,0.1,1.2,0.2c0.4,0.1,0.8,0.1,1.2,0.2
		c0-0.6-0.1-1.3-0.1-1.9c0-0.6,0-1.3,0-1.8c0-0.6,0-1.3,0-2c0-0.8,0.1-1.6,0.1-2.5c0.1-0.9,0.2-1.7,0.3-2.6c0.1-0.9,0.3-1.7,0.6-2.5
		c0.3-0.8,0.6-1.5,1-2.1c0.4-0.6,0.9-1.1,1.4-1.4c0.3-0.2,0.6-0.3,0.9-0.4c0.3-0.1,0.6-0.2,1-0.2C35.6,32.2,35.8,32.5,35.8,32.9z"/>
	<path fill="#FF1D25" d="M65.3,56.3c-0.3,0.7-0.7,1.3-1.2,1.8c-0.5,0.5-1,1-1.5,1.4s-1.1,0.7-1.7,0.9c-0.6,0.2-1.1,0.3-1.7,0.3
		c-1,0-1.8-0.2-2.5-0.5c-0.7-0.3-1.2-0.8-1.7-1.4c-0.4-0.6-0.7-1.3-0.9-2C54,56,54,55.2,54,54.3c0-0.7,0.1-1.4,0.2-2.1
		c0.1-0.7,0.2-1.4,0.4-2.1c0-0.1,0.1-0.2,0.1-0.4c0-0.1,0.1-0.3,0.1-0.4c0-0.1-0.1-0.2-0.2-0.2c-0.3-0.1-0.6-0.2-0.9-0.3
		c-0.3-0.1-0.6-0.2-1-0.3c-0.3-0.1-0.6-0.3-0.9-0.4s-0.5-0.3-0.7-0.6c0,1-0.2,2.1-0.5,3.1c-0.3,1-0.8,2-1.3,3
		c-0.5,1-1.2,1.9-1.9,2.7c-0.7,0.8-1.5,1.6-2.3,2.2l-0.3-0.3c0.5-0.5,0.9-1.2,1.4-1.9c0.4-0.7,0.8-1.5,1-2.3s0.5-1.6,0.7-2.5
		c0.2-0.8,0.2-1.6,0.2-2.3c0-0.4,0-0.7-0.1-1.1c-0.1-0.3-0.1-0.7-0.2-1c-0.1-0.3-0.1-0.6-0.2-0.9c-0.1-0.3-0.1-0.6-0.1-0.9
		c0-0.5,0.2-0.8,0.5-1.1c0.3-0.3,0.7-0.4,1.2-0.4c0.3,0,0.5,0.1,0.6,0.2c0.1,0.1,0.3,0.3,0.4,0.5c0.1,0.2,0.2,0.4,0.4,0.6
		c0.1,0.2,0.3,0.4,0.6,0.6c0.3,0.2,0.7,0.3,1.2,0.4c0.5,0.1,1,0.2,1.6,0.2s1.1,0.1,1.6,0.2s1,0.2,1.5,0.3c0.4,0.2,0.8,0.4,1.1,0.7
		c0.3,0.3,0.4,0.7,0.4,1.1c0,0.2,0,0.5-0.1,0.7c0,0.2-0.1,0.4-0.2,0.7c-0.2,0.7-0.4,1.4-0.5,2.2c-0.1,0.7-0.2,1.5-0.2,2.2
		c0,0.6,0,1.2,0.1,1.7c0.1,0.5,0.3,1,0.5,1.3c0.3,0.4,0.6,0.7,1,0.9c0.4,0.2,1,0.3,1.6,0.3c1,0,1.8-0.2,2.5-0.7s1.3-1.1,1.9-1.8
		L65.3,56.3z"/>
	<path fill="#FF1D25" d="M77.2,56.3c-0.4,0.6-0.9,1.2-1.4,1.8s-1.1,1-1.8,1.4c-0.6,0.4-1.3,0.7-2,0.9s-1.5,0.3-2.2,0.3
		c-1,0-1.8-0.2-2.5-0.5s-1.4-0.8-1.9-1.3c-0.5-0.6-0.9-1.2-1.1-2c-0.3-0.8-0.4-1.6-0.4-2.5c0-1,0.1-1.9,0.4-2.8
		c0.3-0.9,0.7-1.7,1.2-2.5s1.1-1.5,1.8-2.1c0.7-0.6,1.4-1.2,2.2-1.7l0.3,0.2c-0.8,1-1.5,2.1-2,3.3s-0.8,2.5-0.8,3.8
		c0,0.8,0.1,1.5,0.3,2.2c0.2,0.7,0.5,1.3,0.8,1.9c0.4,0.5,0.9,1,1.5,1.3c0.6,0.3,1.3,0.5,2.2,0.5c1,0,2-0.2,2.9-0.6
		c0.9-0.4,1.7-1,2.5-1.6L77.2,56.3z M70,39.4c0,0.3-0.1,0.7-0.2,1c-0.2,0.3-0.4,0.6-0.6,0.9c-0.2,0.3-0.5,0.5-0.9,0.7
		c-0.3,0.2-0.7,0.3-1,0.3c-0.4,0-0.8-0.1-1.1-0.4c-0.3-0.3-0.4-0.7-0.4-1.1c0-0.3,0.1-0.7,0.2-1c0.2-0.3,0.4-0.6,0.6-0.9
		c0.2-0.3,0.5-0.5,0.8-0.6c0.3-0.2,0.6-0.2,1-0.2c0.4,0,0.8,0.1,1.1,0.4S70,38.9,70,39.4z"/>
</g>
</svg>
