<?xml version="1.0" encoding="utf-8"?>
<!-- Generator: Adobe Illustrator 16.2.0, SVG Export Plug-In . SVG Version: 6.00 Build 0)  -->
<!DOCTYPE svg PUBLIC "-//W3C//DTD SVG 1.1//EN" "http://www.w3.org/Graphics/SVG/1.1/DTD/svg11.dtd">
<svg version="1.1" id="Layer_1" xmlns="http://www.w3.org/2000/svg" xmlns:xlink="http://www.w3.org/1999/xlink" x="0px" y="0px"
	 width="100px" height="100px" viewBox="0 0 100 100" enable-background="new 0 0 100 100" xml:space="preserve">
<circle fill="#E6E6E6" cx="50" cy="50" r="50"/>
<circle fill="#F2F2F2" cx="50" cy="50" r="48.8"/>
<linearGradient id="SVGID_1_" gradientUnits="userSpaceOnUse" x1="75.0898" y1="75.0918" x2="24.9081" y2="24.91">
	<stop  offset="2.150540e-002" style="stop-color:#C9C9C9"/>
	<stop  offset="0.9032" style="stop-color:#F7F7F7"/>
</linearGradient>
<circle fill="url(#SVGID_1_)" cx="50" cy="50" r="35.5"/>
<g>
	<path fill="#FF1D25" d="M21.3,26.2c-0.1,0.2-0.1,0.5-0.2,0.8c-0.1,0.3-0.1,0.7-0.2,1.1c1.2,0.1,2.4,0.2,3.6,0.4s2.5,0.4,3.6,0.6
		c1.2,0.2,2.3,0.5,3.4,0.9c1.1,0.3,2.1,0.7,2.9,1.1l-0.2,0.5c-1.7-0.2-3.5-0.4-5.2-0.5C27.4,31.1,25.7,31,24,31c-0.6,0-1.1,0-1.7,0
		c-0.6,0-1.1,0.1-1.7,0.1c-0.1,1.2-0.3,2.5-0.4,3.9c-0.1,1.4-0.2,2.9-0.3,4.5c-0.1,1.6-0.2,3.2-0.3,4.9s-0.1,3.4-0.2,5.1
		c0,1.7,0,3.3,0,5c0,1.6,0.1,3.2,0.2,4.6c0.1,1.5,0.2,2.8,0.4,4.1c0.2,1.3,0.4,2.3,0.7,3.3c0,0.1,0.1,0.3,0.1,0.4
		c0.1,0.2,0.1,0.3,0.1,0.4c0,0.3-0.1,0.5-0.2,0.6c-0.1,0.2-0.3,0.2-0.6,0.2c-0.3,0-0.7-0.1-1-0.3c-0.3-0.2-0.6-0.4-0.9-0.5
		c-0.5-0.3-0.8-0.8-1.1-1.5c-0.3-0.7-0.4-1.4-0.5-2.3c-0.1-0.8-0.2-1.6-0.2-2.4s0-1.4,0-1.9c0-1.2,0-2.5,0.1-4
		c0.1-1.5,0.1-3,0.2-4.6c0.1-1.6,0.2-3.3,0.4-5c0.2-1.7,0.3-3.4,0.6-5.1c0.2-1.7,0.5-3.3,0.7-4.9c0.3-1.6,0.6-3.1,0.9-4.5
		c-1.2,0.1-2.3,0.2-3.5,0.3c-1.2,0.1-2.3,0.3-3.4,0.5s-2.2,0.4-3.2,0.6c-1,0.2-1.9,0.5-2.8,0.8c-0.2,0.1-0.4,0.1-0.6,0.1
		c-0.5,0-0.7-0.2-0.7-0.7c0-0.3,0.1-0.6,0.3-1c0.2-0.3,0.3-0.6,0.5-0.9c0.3-0.4,0.7-0.7,1.2-1c0.5-0.3,1.1-0.6,1.8-0.8
		c0.7-0.2,1.4-0.4,2.2-0.6c0.8-0.2,1.5-0.3,2.2-0.4c0.7-0.1,1.4-0.2,2.1-0.2s1.2-0.1,1.6-0.1c0.5,0,1,0,1.5,0c0.5,0,1.1,0.1,1.6,0.1
		c0.3-0.8,0.5-1.5,0.8-2.1L21.3,26.2z"/>
	<path fill="#FF1D25" d="M48.2,56.7c-0.3,0.6-0.6,1.1-1,1.7S46.4,59.5,46,60c-0.5,0.5-1,0.8-1.6,1.1s-1.2,0.4-1.8,0.4
		c-0.7,0-1.3-0.2-1.9-0.6c-0.5-0.4-1-0.9-1.3-1.5c-0.4-0.6-0.7-1.3-0.9-2.1s-0.4-1.6-0.6-2.4c-0.2-0.8-0.3-1.7-0.4-2.5
		s-0.2-1.6-0.3-2.3c-0.5,0.7-1,1.4-1.4,2.1c-0.4,0.7-0.8,1.5-1.2,2.3s-0.8,1.6-1.1,2.4c-0.4,0.8-0.8,1.6-1.2,2.4
		c-0.1,0.2-0.2,0.4-0.3,0.6c-0.1,0.2-0.2,0.4-0.3,0.5c-0.1,0.2-0.3,0.3-0.5,0.4c-0.2,0.1-0.4,0.2-0.6,0.2c-0.2,0-0.4,0-0.6-0.1
		c-0.2-0.1-0.3-0.2-0.4-0.3c-0.1-0.1-0.2-0.2-0.2-0.4c-0.1-0.1-0.1-0.3-0.1-0.4c-0.2-0.7-0.4-1.5-0.5-2.6c-0.2-1-0.3-2.1-0.4-3.3
		c-0.1-1.2-0.2-2.4-0.2-3.6c-0.1-1.2-0.1-2.3-0.1-3.4c0-1.5,0.1-3,0.3-4.6c0.2-1.6,0.5-3.1,0.9-4.6c0.4-1.5,0.9-2.9,1.5-4.2
		c0.6-1.3,1.4-2.5,2.2-3.5s1.8-1.8,2.9-2.4c1.1-0.6,2.3-0.9,3.7-0.9c0.9,0,1.6,0.3,2.1,0.8c0.5,0.5,0.8,1.3,0.8,2.3
		c0,1.5-0.3,2.9-0.8,4.2c-0.5,1.4-1.2,2.6-2,3.9c-0.8,1.2-1.7,2.4-2.7,3.5c-1,1.1-1.9,2.1-2.8,3.1l-0.3-0.2c0.4-0.4,0.8-1,1.3-1.7
		c0.5-0.7,0.9-1.4,1.3-2.1c0.4-0.8,0.9-1.6,1.2-2.4c0.4-0.8,0.7-1.7,1-2.5c0.3-0.8,0.5-1.6,0.7-2.4c0.2-0.8,0.3-1.5,0.3-2.1
		c0-0.3,0-0.6-0.1-1c-0.1-0.3-0.2-0.6-0.3-0.8c-0.2-0.2-0.4-0.4-0.6-0.5s-0.5-0.2-0.9-0.2c-0.7,0-1.4,0.3-2,0.8s-1.2,1.3-1.7,2.2
		s-1,2-1.3,3.2c-0.4,1.2-0.7,2.5-1,3.8c-0.3,1.3-0.5,2.6-0.6,4s-0.2,2.6-0.2,3.8c0,0.8,0,1.7,0,2.5c0,0.8,0,1.7,0.1,2.6
		c0,0.9,0.1,1.9,0.2,2.9c0.1,1,0.2,2.1,0.4,3.4c0.7-1.8,1.4-3.6,2.2-5.3c0.8-1.7,1.6-3.3,2.5-4.8c0.1-0.2,0.3-0.4,0.4-0.6
		c0.1-0.2,0.3-0.4,0.4-0.6c0.2-0.2,0.3-0.3,0.5-0.4c0.2-0.1,0.4-0.2,0.6-0.2c0.3,0,0.5,0.1,0.6,0.2c0.2,0.2,0.3,0.3,0.4,0.6
		c0.1,0.2,0.2,0.5,0.2,0.7s0.1,0.5,0.1,0.7c0.1,0.5,0.1,1.1,0.2,1.8c0.1,0.7,0.2,1.5,0.3,2.3c0.1,0.8,0.2,1.7,0.4,2.5
		c0.2,0.8,0.4,1.6,0.6,2.3c0.3,0.7,0.6,1.2,0.9,1.7c0.4,0.4,0.8,0.6,1.3,0.6c0.4,0,0.8-0.1,1.2-0.3c0.4-0.2,0.8-0.4,1.2-0.7
		c0.4-0.3,0.7-0.6,1.1-0.9s0.6-0.7,0.8-1L48.2,56.7z"/>
	<path fill="#FF1D25" d="M66.3,56.8c-0.3,0.6-0.6,1.1-1.1,1.6c-0.5,0.5-1,1-1.5,1.4c-0.6,0.4-1.2,0.7-1.8,1
		c-0.6,0.2-1.3,0.4-1.9,0.4c-0.9,0-1.6-0.3-2.1-0.8c-0.6-0.5-1-1.1-1.2-1.9c-0.6,0.6-1.3,1.1-2,1.5c-0.7,0.4-1.6,0.6-2.5,0.6
		c-0.8,0-1.5-0.1-2.1-0.4c-0.6-0.3-1.1-0.7-1.6-1.2c-0.4-0.5-0.7-1.1-0.9-1.8c-0.2-0.7-0.3-1.4-0.3-2.1c0-0.9,0.1-1.7,0.4-2.5
		c0.2-0.8,0.6-1.6,1-2.3c0.4-0.7,0.9-1.4,1.5-2.1c0.6-0.6,1.2-1.2,1.9-1.7l0.3,0.2c-0.7,1-1.2,2-1.6,3.1C50.2,51,50,52.2,50,53.4
		c0,0.5,0.1,1,0.2,1.6s0.3,1.1,0.5,1.6c0.3,0.5,0.6,0.9,1,1.2c0.4,0.3,0.9,0.5,1.6,0.5c0.5,0,1.1-0.1,1.5-0.3c0.5-0.2,1-0.4,1.4-0.7
		c0-0.2-0.1-0.4-0.1-0.6c0-0.2,0-0.4,0-0.6c0-0.8,0.1-1.6,0.3-2.5c0.2-0.9,0.5-1.8,0.9-2.6c0.4-0.9,0.8-1.7,1.2-2.5
		c0.5-0.8,0.9-1.5,1.4-2.1l0.3,0.2c-0.4,1.2-0.7,2.5-0.9,3.8c-0.2,1.3-0.4,2.6-0.4,3.8c0,0.6,0,1.1,0.1,1.7c0.1,0.5,0.2,1,0.5,1.4
		c0.2,0.4,0.5,0.8,1,1c0.4,0.2,1,0.4,1.6,0.4c0.8,0,1.5-0.2,2.1-0.6c0.7-0.4,1.3-0.9,1.8-1.4L66.3,56.8z"/>
	<path fill="#FF1D25" d="M83.2,56.8c-0.3,0.6-0.6,1.2-1.1,1.7c-0.4,0.5-0.9,0.9-1.4,1.3s-1,0.6-1.6,0.8c-0.5,0.2-1.1,0.3-1.5,0.3
		c-0.9,0-1.7-0.2-2.3-0.5c-0.6-0.3-1.1-0.7-1.5-1.3c-0.4-0.5-0.7-1.2-0.9-1.9c-0.2-0.7-0.3-1.5-0.3-2.3c0-0.6,0-1.3,0.1-2
		c0.1-0.7,0.2-1.3,0.4-2c0-0.1,0.1-0.2,0.1-0.3c0-0.1,0-0.2,0-0.3c0-0.1,0-0.1-0.1-0.2c-0.3-0.1-0.6-0.2-0.9-0.3s-0.6-0.2-0.9-0.3
		c-0.3-0.1-0.6-0.2-0.8-0.4s-0.5-0.3-0.7-0.5c0,1-0.2,1.9-0.5,2.9s-0.7,1.9-1.2,2.8c-0.5,0.9-1.1,1.7-1.7,2.5
		c-0.7,0.8-1.4,1.4-2.1,2l-0.2-0.2c0.5-0.5,0.9-1.1,1.3-1.8c0.4-0.7,0.7-1.4,1-2.2c0.3-0.8,0.5-1.5,0.6-2.3c0.2-0.8,0.2-1.5,0.2-2.2
		c0-0.3,0-0.7-0.1-1c-0.1-0.3-0.1-0.6-0.2-0.9s-0.1-0.6-0.2-0.8c-0.1-0.3-0.1-0.5-0.1-0.8c0-0.4,0.1-0.8,0.4-1s0.6-0.4,1.1-0.4
		c0.2,0,0.4,0.1,0.5,0.2c0.1,0.1,0.2,0.3,0.3,0.5c0.1,0.2,0.2,0.4,0.3,0.6c0.1,0.2,0.3,0.4,0.5,0.5c0.3,0.2,0.7,0.3,1.1,0.4
		c0.5,0.1,0.9,0.2,1.4,0.2s1,0.1,1.5,0.2c0.5,0.1,1,0.2,1.4,0.3c0.4,0.2,0.7,0.4,1,0.6c0.3,0.3,0.4,0.6,0.4,1.1c0,0.2,0,0.4-0.1,0.7
		c0,0.2-0.1,0.4-0.2,0.6c-0.2,0.7-0.4,1.3-0.5,2s-0.2,1.4-0.2,2.1c0,0.6,0,1.1,0.1,1.6c0.1,0.5,0.3,0.9,0.5,1.2
		c0.2,0.3,0.6,0.6,1,0.8c0.4,0.2,0.9,0.3,1.5,0.3c0.9,0,1.7-0.2,2.3-0.7c0.7-0.4,1.3-1,1.8-1.7L83.2,56.8z"/>
	<path fill="#FF1D25" d="M95.3,55.1c0,0.8-0.2,1.6-0.5,2.3s-0.7,1.4-1.3,1.9c-0.5,0.5-1.2,1-1.9,1.3c-0.7,0.3-1.5,0.5-2.3,0.5
		c-0.6,0-1.1-0.1-1.6-0.3c-0.5-0.2-1-0.4-1.5-0.7s-0.8-0.7-1.2-1.2c-0.3-0.5-0.6-1-0.7-1.5l0.5-0.1c0.4,0.5,0.9,0.9,1.4,1.3
		c0.5,0.3,1.2,0.5,1.9,0.5c0.6,0,1.1-0.1,1.6-0.4c0.5-0.3,0.9-0.6,1.3-1s0.6-0.9,0.8-1.4c0.2-0.5,0.3-1.1,0.3-1.7
		c0-0.7-0.1-1.2-0.3-1.7c-0.2-0.5-0.4-0.8-0.7-1.1c-0.3-0.3-0.7-0.6-1-0.8c-0.4-0.2-0.8-0.5-1.2-0.7c-0.4-0.2-0.8-0.5-1.1-0.8
		c-0.4-0.3-0.7-0.7-0.9-1.2c0,0.9-0.2,1.9-0.5,2.9c-0.3,1-0.7,2-1.2,3c-0.5,1-1.1,1.9-1.8,2.7s-1.4,1.5-2.1,2.1l-0.2-0.3
		c0.5-0.5,1-1.2,1.3-2c0.4-0.8,0.7-1.7,0.9-2.6c0.2-0.9,0.4-1.8,0.5-2.7c0.1-0.9,0.2-1.7,0.2-2.5c0-0.4,0-0.8-0.1-1.2
		C84,47.3,84,47,84,46.6c0-0.4,0.1-0.8,0.4-1c0.3-0.2,0.6-0.4,1-0.4c0.3,0,0.6,0.1,0.8,0.2c0.2,0.1,0.4,0.3,0.5,0.6
		c0.2,0.2,0.3,0.5,0.5,0.8c0.2,0.3,0.4,0.6,0.6,0.9c0.2,0.3,0.6,0.6,0.9,0.9s0.9,0.6,1.4,0.8c0.7,0.3,1.3,0.5,2,0.9
		c0.6,0.3,1.2,0.7,1.7,1.2s0.9,1,1.2,1.6C95.2,53.6,95.3,54.3,95.3,55.1z"/>
</g>
</svg>
