<?xml version="1.0" encoding="utf-8"?>
<!-- Generator: Adobe Illustrator 16.2.0, SVG Export Plug-In . SVG Version: 6.00 Build 0)  -->
<!DOCTYPE svg PUBLIC "-//W3C//DTD SVG 1.1//EN" "http://www.w3.org/Graphics/SVG/1.1/DTD/svg11.dtd">
<svg version="1.1" id="Layer_1" xmlns="http://www.w3.org/2000/svg" xmlns:xlink="http://www.w3.org/1999/xlink" x="0px" y="0px"
	 width="100px" height="100px" viewBox="0 0 100 100" enable-background="new 0 0 100 100" xml:space="preserve">
<circle fill="#E6E6E6" cx="50" cy="50" r="50"/>
<circle fill="#F2F2F2" cx="50" cy="50" r="48.8"/>
<linearGradient id="SVGID_1_" gradientUnits="userSpaceOnUse" x1="75.0898" y1="75.0918" x2="24.9081" y2="24.91">
	<stop  offset="2.150540e-002" style="stop-color:#C9C9C9"/>
	<stop  offset="0.9032" style="stop-color:#F7F7F7"/>
</linearGradient>
<circle fill="url(#SVGID_1_)" cx="50" cy="50" r="35.5"/>
<g>
	<path fill="#FF1D25" d="M45.2,31.9c0,1.4-0.3,2.7-1,3.9c-0.7,1.2-1.6,2.3-2.7,3.1c-1.1,0.9-2.3,1.6-3.7,2.1c-1.3,0.5-2.7,0.7-4,0.7
		h-0.4v-0.5c1.1-0.2,2.2-0.6,3.2-1.2c1-0.6,1.9-1.3,2.6-2.2C40,37,40.5,36.1,41,35c0.4-1.1,0.6-2.2,0.6-3.3c0-0.8-0.1-1.5-0.3-2.2
		c-0.2-0.7-0.5-1.3-0.9-1.8s-0.9-0.9-1.5-1.2c-0.6-0.3-1.3-0.4-2.2-0.4c-1.2,0-2.4,0.2-3.6,0.5s-2.4,0.9-3.5,1.5
		c-1.1,0.6-2.2,1.4-3.2,2.3c-1,0.9-1.9,1.9-2.6,2.9c-0.7,1.1-1.3,2.2-1.7,3.4c-0.4,1.2-0.6,2.4-0.6,3.6c0,1.3,0.2,2.5,0.6,3.4
		c0.4,1,0.9,1.8,1.6,2.5c0.7,0.7,1.4,1.3,2.3,1.8s1.8,1,2.8,1.4c1,0.4,2,0.8,3,1.2c1,0.4,2,0.7,3,1.1c1,0.4,1.9,0.9,2.8,1.4
		s1.6,1.1,2.3,1.8c0.7,0.7,1.2,1.5,1.6,2.4c0.4,0.9,0.6,2.1,0.6,3.3c0,1.4-0.3,2.6-0.9,3.7s-1.3,2-2.3,2.7c-0.9,0.7-2,1.3-3.2,1.7
		c-1.2,0.4-2.4,0.6-3.7,0.6c-1.4,0-2.7-0.2-3.8-0.7c-1.2-0.5-2.2-1.1-3.2-1.9c-0.9-0.8-1.8-1.7-2.4-2.7c-0.7-1-1.3-2.1-1.7-3.2
		l0.4-0.2c0.5,0.9,1.1,1.8,1.8,2.7c0.7,0.9,1.4,1.7,2.2,2.3c0.8,0.7,1.8,1.2,2.8,1.7c1,0.4,2.1,0.6,3.3,0.6c1,0,1.9-0.1,2.7-0.4
		c0.8-0.3,1.6-0.7,2.2-1.2s1.1-1.1,1.4-1.9c0.3-0.7,0.5-1.6,0.5-2.5c0-1.4-0.3-2.5-0.9-3.4c-0.6-0.9-1.4-1.7-2.3-2.3
		s-2.1-1.2-3.3-1.6c-1.2-0.4-2.5-0.9-3.8-1.3c-1.3-0.4-2.6-1-3.8-1.5c-1.2-0.6-2.3-1.3-3.3-2.2s-1.8-1.9-2.3-3.2
		c-0.6-1.3-0.9-2.9-0.9-4.7c0-1.7,0.3-3.3,0.8-4.8c0.5-1.5,1.3-2.9,2.2-4.1s2-2.4,3.3-3.4s2.6-1.8,4.1-2.5c1.5-0.7,3-1.2,4.6-1.6
		c1.6-0.4,3.2-0.5,4.8-0.5c1.1,0,2.2,0.1,3.2,0.4c1,0.3,1.9,0.7,2.6,1.3c0.7,0.6,1.3,1.3,1.8,2.2C45,29.6,45.2,30.7,45.2,31.9z"/>
	<path fill="#FF1D25" d="M57,46.6c0,0.2-0.1,0.4-0.2,0.5c-0.1,0.1-0.3,0.2-0.5,0.2c-0.2,0-0.3,0-0.5-0.1c-0.2-0.1-0.4-0.2-0.6-0.3
		c-0.2-0.1-0.5-0.2-0.7-0.3c-0.3-0.1-0.6-0.1-1-0.1c-0.8,0-1.6,0.3-2.2,0.8c-0.7,0.5-1.2,1.2-1.7,1.9s-0.8,1.6-1,2.4
		c-0.2,0.9-0.4,1.6-0.4,2.3c0,0.5,0,1,0.1,1.4c0.1,0.5,0.2,0.9,0.4,1.3c0.2,0.4,0.5,0.7,0.9,0.9c0.4,0.2,0.8,0.3,1.4,0.3
		c0.6,0,1.2-0.1,1.8-0.3c0.6-0.2,1.1-0.5,1.6-0.9c0-0.5,0.1-1.1,0.3-1.7s0.4-1.2,0.6-1.8c0.3-0.6,0.5-1.1,0.9-1.7
		c0.3-0.5,0.7-1,1-1.4l0.3,0.2c-0.2,0.6-0.3,1.2-0.4,1.8c-0.1,0.6-0.1,1.2-0.1,1.8c0,0.6,0.1,1.2,0.2,1.7c0.1,0.5,0.3,1,0.5,1.4
		c0.3,0.4,0.6,0.7,1,0.9c0.4,0.2,1,0.3,1.7,0.3c0.8,0,1.6-0.2,2.3-0.6c0.7-0.4,1.3-0.9,1.9-1.5l0.2,0.1c-0.3,0.6-0.7,1.2-1.2,1.7
		c-0.5,0.5-1,1-1.6,1.5s-1.2,0.8-1.9,1c-0.7,0.3-1.4,0.4-2,0.4c-0.9,0-1.7-0.3-2.3-0.8s-1-1.2-1.2-2c-0.7,0.7-1.5,1.3-2.4,1.8
		s-1.8,0.7-2.8,0.7c-0.7,0-1.3-0.1-1.9-0.4c-0.6-0.3-1-0.6-1.4-1.1c-0.4-0.4-0.7-1-0.9-1.6c-0.2-0.6-0.3-1.2-0.3-1.9
		c0-0.8,0.1-1.6,0.4-2.4c0.2-0.8,0.6-1.6,1-2.4c0.4-0.8,0.9-1.5,1.5-2.2c0.6-0.7,1.2-1.3,2-1.8c0.7-0.5,1.4-0.9,2.2-1.2
		c0.8-0.3,1.6-0.5,2.4-0.5c0.2,0,0.4,0,0.7,0.1c0.3,0,0.5,0.1,0.8,0.2c0.3,0.1,0.5,0.2,0.7,0.4C56.9,46,57,46.3,57,46.6z"/>
	<path fill="#FF1D25" d="M80.6,56.3c-0.4,0.6-0.8,1.2-1.3,1.8c-0.5,0.5-1.1,1-1.7,1.4c-0.6,0.4-1.3,0.7-2,1
		c-0.7,0.2-1.4,0.3-2.2,0.3c-1.1,0-2.1-0.2-2.9-0.6c-0.8-0.4-1.6-0.9-2.2-1.5c-0.6-0.6-1.1-1.4-1.5-2.2c-0.4-0.8-0.7-1.7-1-2.7
		s-0.4-1.9-0.5-2.8c-0.1-1-0.2-1.9-0.2-2.8c0-0.8,0-1.7,0.1-2.5c0.1-0.9,0.2-1.7,0.3-2.6c-0.5,0-1,0-1.5,0c-0.5,0-1,0-1.5,0
		c-0.3,0-0.7,0-1.1,0c-0.4,0-0.8-0.1-1.1-0.2c-0.4-0.1-0.7-0.3-0.9-0.5c-0.2-0.2-0.4-0.6-0.4-1c0-0.3,0-0.5,0.1-0.6s0.2-0.3,0.4-0.3
		c0.2-0.1,0.3-0.1,0.6-0.2s0.4,0,0.6,0c0.3,0,0.9,0,1.8,0.1c1,0.1,2.1,0.2,3.4,0.3c0.4-2,1-4,1.6-5.9c0.7-1.9,1.4-3.7,2.3-5.3h0.4
		c-0.5,1.9-1,3.7-1.4,5.6c-0.4,1.9-0.7,3.8-0.9,5.7c1.2,0.1,2.5,0.2,3.8,0.2c1.3,0.1,2.6,0.1,3.9,0.1c1.9,0,3.4,0,4.5-0.1
		c1.2,0,2.1-0.1,2.7-0.1c0.8-0.1,1.4-0.1,1.8-0.2l0.1,0.4c-1,0.2-2.2,0.5-3.5,0.7s-2.7,0.4-4.2,0.6c-1.5,0.2-3,0.3-4.6,0.4
		c-1.6,0.1-3.2,0.2-4.7,0.3c0,0.3-0.1,0.7-0.1,1s0,0.7,0,1c0,0.8,0,1.7,0.1,2.7c0.1,1,0.2,2,0.4,3c0.2,1,0.5,2,0.8,2.9
		c0.3,0.9,0.8,1.8,1.4,2.5s1.3,1.3,2.1,1.7s1.7,0.7,2.8,0.7c1,0,1.9-0.2,2.7-0.7c0.8-0.4,1.6-1,2.3-1.6L80.6,56.3z"/>
</g>
</svg>
