<?xml version="1.0" encoding="utf-8"?>
<!-- Generator: Adobe Illustrator 16.2.0, SVG Export Plug-In . SVG Version: 6.00 Build 0)  -->
<!DOCTYPE svg PUBLIC "-//W3C//DTD SVG 1.1//EN" "http://www.w3.org/Graphics/SVG/1.1/DTD/svg11.dtd">
<svg version="1.1" id="Layer_1" xmlns="http://www.w3.org/2000/svg" xmlns:xlink="http://www.w3.org/1999/xlink" x="0px" y="0px"
	 width="100px" height="100px" viewBox="0 0 100 100" enable-background="new 0 0 100 100" xml:space="preserve">
<circle fill="#FFFFFF" cx="50" cy="50" r="50"/>
<g>
	<path fill="#FF1D25" d="M37.5,56.9c-0.2,1-0.5,1.9-1,2.6c-0.5,0.7-1.2,1.3-1.9,1.8c-0.7,0.5-1.6,0.8-2.5,1.1
		c-0.9,0.2-1.8,0.4-2.7,0.4c-0.6,0-1.3-0.1-2-0.2c-0.7-0.2-1.4-0.3-2.1-0.5s-1.4-0.4-2-0.5c-0.7-0.2-1.3-0.2-1.9-0.2
		c-0.3,0-0.6,0-0.9,0.1c-0.3,0.1-0.6,0.2-0.9,0.3s-0.6,0.3-0.9,0.5c-0.3,0.2-0.5,0.4-0.6,0.6l-0.3-0.2c0.1-0.6,0.2-1.1,0.4-1.6
		c0.2-0.5,0.5-0.9,0.9-1.3c0.4-0.4,0.8-0.6,1.3-0.8c0.5-0.2,1-0.3,1.6-0.3c0.1,0,0.3,0,0.4,0c0.1,0,0.3,0,0.4,0
		c-0.6-1.4-1.1-2.9-1.4-4.5c-0.4-1.6-0.7-3.3-0.9-5s-0.4-3.4-0.5-5.1s-0.1-3.3-0.1-4.7c0-0.5,0-1.1,0-1.7c0-0.7,0.1-1.4,0.1-2.1
		c0.1-0.7,0.2-1.5,0.3-2.2c0.1-0.7,0.3-1.4,0.5-2.1c0.2-0.7,0.5-1.3,0.9-1.8c0.3-0.5,0.8-0.9,1.3-1.2c0.3-0.2,0.5-0.3,0.8-0.4
		c0.3-0.1,0.6-0.2,0.9-0.2c0.2,0,0.4,0,0.5,0.1s0.2,0.2,0.2,0.5c0,0.1,0,0.2-0.1,0.3c0,0.1-0.1,0.2-0.1,0.3c-0.2,0.5-0.4,1-0.7,1.4
		c-0.2,0.5-0.4,0.9-0.6,1.4c-0.4,1.2-0.6,2.5-0.9,3.9c-0.2,1.4-0.4,2.9-0.5,4.4s-0.2,3.1-0.2,4.7c0,1.6,0,3.2,0.1,4.8
		s0.2,3.2,0.3,4.7s0.3,3.1,0.5,4.5c0.6,0.1,1.2,0.2,1.8,0.3c0.6,0.1,1.2,0.3,1.8,0.4c0.6,0.1,1.2,0.2,1.9,0.3
		c0.6,0.1,1.3,0.1,1.9,0.1c0.6,0,1.2-0.1,1.9-0.2c0.6-0.1,1.2-0.3,1.8-0.5s1.1-0.5,1.6-0.9c0.5-0.4,0.9-0.9,1.2-1.4L37.5,56.9z"/>
	<path fill="#FF1D25" d="M45.1,49.4c0,1-0.2,1.9-0.5,2.7c-0.3,0.8-0.8,1.5-1.3,2.1s-1.3,1.1-2.1,1.4c-0.8,0.3-1.7,0.5-2.7,0.5
		c-0.9,0-1.6-0.2-2.3-0.5c-0.7-0.3-1.3-0.8-1.8-1.3c-0.5-0.5-0.9-1.2-1.1-1.9c-0.3-0.7-0.4-1.5-0.4-2.4c0-0.7,0.1-1.4,0.3-2
		c0.2-0.6,0.5-1.2,0.8-1.8c0.4-0.5,0.8-1,1.3-1.5c0.5-0.5,1-0.9,1.6-1.2l0.2,0.2c-0.6,0.7-1,1.4-1.4,2.2c-0.3,0.8-0.5,1.7-0.5,2.6
		c0,0.7,0.1,1.3,0.3,2c0.2,0.7,0.5,1.3,0.9,1.9c0.4,0.6,0.9,1,1.4,1.4c0.6,0.4,1.2,0.5,2,0.5c0.5,0,0.9-0.1,1.3-0.3
		c0.4-0.2,0.8-0.5,1.1-0.8c0.3-0.3,0.6-0.7,0.7-1.1c0.2-0.4,0.3-0.9,0.3-1.3c0-0.4-0.1-0.9-0.2-1.3c-0.1-0.4-0.3-0.8-0.5-1.2
		s-0.5-0.7-0.8-1s-0.7-0.5-1.1-0.7c-0.2-0.1-0.4-0.2-0.6-0.2c-0.2-0.1-0.4-0.1-0.6-0.2c-0.1,0-0.2,0-0.3-0.1c-0.1,0-0.2-0.1-0.3-0.1
		c-0.1,0-0.2-0.1-0.2-0.2s-0.1-0.2-0.1-0.3c0-0.2,0.1-0.5,0.3-0.7c0.2-0.2,0.4-0.4,0.6-0.5c0.2-0.2,0.5-0.3,0.8-0.4s0.5-0.1,0.7-0.1
		c0.7,0,1.3,0.2,1.9,0.5c0.5,0.4,1,0.8,1.3,1.4c0.4,0.5,0.6,1.2,0.8,1.8C45,48.1,45.1,48.8,45.1,49.4z"/>
	<path fill="#FF1D25" d="M57.8,61.8c0,1.1-0.1,2.3-0.4,3.4c-0.3,1.2-0.7,2.2-1.2,3.2s-1.3,1.8-2.2,2.5s-2,1.1-3.2,1.3
		c-0.1,0-0.2,0-0.4,0.1c-0.1,0-0.2,0-0.4,0c-0.8,0-1.5-0.2-2.1-0.5c-0.7-0.3-1.3-0.7-1.8-1.2c-0.5-0.5-0.9-1.1-1.2-1.8
		c-0.3-0.7-0.4-1.4-0.4-2.1c0-0.8,0.2-1.6,0.5-2.4c0.3-0.8,0.8-1.5,1.3-2.1c0.5-0.6,1.2-1.2,1.9-1.7c0.7-0.5,1.4-0.9,2.1-1.2
		l0.1,0.3c-1.3,0.7-2.4,1.7-3.1,2.9c-0.7,1.3-1.1,2.6-1.1,4.1c0,0.6,0.1,1.2,0.3,1.8s0.4,1.1,0.8,1.5c0.3,0.4,0.8,0.8,1.3,1.1
		c0.5,0.3,1.1,0.4,1.8,0.4c0.9,0,1.7-0.2,2.4-0.7c0.6-0.5,1.1-1.1,1.5-1.9c0.4-0.7,0.6-1.5,0.8-2.4c0.2-0.9,0.2-1.7,0.2-2.4
		c0-0.7,0-1.3-0.1-1.9c-0.1-0.6-0.2-1.3-0.3-1.9c-0.1-0.6-0.2-1.3-0.3-1.9c-0.1-0.6-0.1-1.3-0.1-1.9c0-0.5,0-0.9,0.1-1.4
		c0-0.5,0.1-1,0.2-1.5c-0.6,0.7-1.3,1.3-2.1,1.8c-0.8,0.5-1.6,0.8-2.5,0.8c-0.6,0-1.1-0.1-1.5-0.3c-0.4-0.2-0.8-0.5-1.1-0.9
		c-0.3-0.4-0.5-0.8-0.7-1.3c-0.2-0.5-0.2-1-0.2-1.5c0-0.6,0.1-1.3,0.3-1.9c0.2-0.7,0.5-1.3,0.8-1.9c0.4-0.6,0.8-1.2,1.2-1.8
		c0.5-0.6,1-1,1.6-1.5c0.6-0.4,1.2-0.7,1.8-1c0.6-0.2,1.3-0.4,1.9-0.4c0.3,0,0.7,0,1,0.1s0.6,0.2,0.9,0.4c0.3,0.2,0.5,0.4,0.7,0.7
		c0.2,0.3,0.3,0.6,0.3,1c0,0.3-0.1,0.5-0.2,0.7c-0.1,0.2-0.3,0.4-0.5,0.6c-0.2,0.2-0.4,0.3-0.6,0.5c-0.2,0.1-0.5,0.3-0.7,0.4
		l-0.1-0.2c0.1-0.1,0.2-0.3,0.2-0.5c0-0.2,0.1-0.4,0.1-0.5c0-0.2,0-0.5-0.1-0.8c-0.1-0.3-0.2-0.5-0.3-0.7c-0.1-0.2-0.3-0.4-0.5-0.5
		c-0.2-0.1-0.5-0.2-0.7-0.2c-0.7,0-1.3,0.2-1.9,0.6c-0.6,0.4-1,0.9-1.4,1.4c-0.4,0.6-0.7,1.2-0.9,1.9c-0.2,0.7-0.3,1.3-0.3,1.9
		c0,0.4,0,0.8,0.1,1.2s0.2,0.8,0.4,1.1c0.2,0.3,0.4,0.6,0.7,0.8c0.3,0.2,0.7,0.3,1.2,0.3c0.7,0,1.4-0.2,2.1-0.6
		c0.6-0.4,1.2-0.9,1.7-1.4c0.2-0.5,0.4-1.1,0.8-1.6c0.3-0.5,0.7-0.9,1.1-1.3l0.3,0.2c-0.3,0.5-0.5,1.1-0.6,1.7
		c-0.1,0.6-0.1,1.3-0.1,1.9c0,0.7,0.1,1.5,0.2,2.2c0.1,0.7,0.2,1.5,0.4,2.2c0.1,0.7,0.3,1.5,0.4,2.2C57.7,60.2,57.8,61,57.8,61.8z"
		/>
	<path fill="#FF1D25" d="M70.3,52.5c-0.3,0.5-0.7,1-1.1,1.4s-0.9,0.8-1.4,1.1c-0.5,0.3-1.1,0.6-1.6,0.8c-0.6,0.2-1.2,0.3-1.8,0.3
		c-0.8,0-1.5-0.1-2-0.4s-1.1-0.6-1.5-1.1c-0.4-0.5-0.7-1-0.9-1.6s-0.3-1.3-0.3-2.1c0-0.8,0.1-1.6,0.4-2.3c0.2-0.7,0.6-1.4,1-2
		c0.4-0.6,0.9-1.2,1.5-1.7c0.6-0.5,1.2-1,1.8-1.4l0.2,0.2c-0.7,0.8-1.2,1.7-1.6,2.7c-0.4,1-0.6,2-0.6,3.1c0,0.6,0.1,1.2,0.2,1.8
		c0.1,0.6,0.4,1.1,0.7,1.5c0.3,0.4,0.7,0.8,1.2,1.1c0.5,0.3,1.1,0.4,1.8,0.4c0.8,0,1.6-0.2,2.3-0.5c0.7-0.3,1.4-0.8,2-1.3L70.3,52.5
		z M64.6,38.8c0,0.3-0.1,0.5-0.2,0.8c-0.1,0.3-0.3,0.5-0.5,0.7s-0.4,0.4-0.7,0.5c-0.3,0.1-0.5,0.2-0.8,0.2c-0.4,0-0.6-0.1-0.9-0.4
		c-0.2-0.2-0.3-0.5-0.3-0.9c0-0.3,0.1-0.5,0.2-0.8c0.1-0.3,0.3-0.5,0.5-0.7s0.4-0.4,0.7-0.5c0.3-0.1,0.5-0.2,0.8-0.2
		c0.4,0,0.6,0.1,0.9,0.3C64.5,38.2,64.6,38.5,64.6,38.8z"/>
	<path fill="#FF1D25" d="M87.1,52.5c-0.3,0.5-0.5,1-0.8,1.4c-0.3,0.5-0.6,0.9-1,1.2c-0.4,0.3-0.8,0.6-1.3,0.8s-1,0.3-1.6,0.3
		c-0.7,0-1.3-0.2-1.8-0.5c-0.5-0.3-0.9-0.8-1.3-1.3c-0.4-0.6-0.6-1.2-0.8-1.9s-0.4-1.4-0.5-2.2c-0.1-0.7-0.2-1.5-0.3-2.2
		c-0.1-0.7-0.1-1.4-0.2-1.9c-0.3,0.2-0.6,0.6-0.9,1.2c-0.4,0.6-0.7,1.3-1.1,2.1c-0.4,0.8-0.8,1.6-1.1,2.6c-0.4,0.9-0.6,1.8-0.9,2.7
		c0,0.2-0.1,0.4-0.2,0.6c-0.1,0.2-0.2,0.4-0.3,0.6s-0.3,0.3-0.5,0.4c-0.2,0.1-0.4,0.2-0.6,0.2c-0.4,0-0.6-0.1-0.8-0.4
		s-0.3-0.5-0.3-0.8c-0.4-1.7-0.7-3.4-0.8-5c-0.2-1.6-0.2-3.2-0.2-4.8c0-0.4,0.1-0.7,0.2-1c0.1-0.3,0.3-0.5,0.5-0.7
		c0.2-0.2,0.5-0.3,0.8-0.4c0.3-0.1,0.6-0.1,0.9-0.1c0,0,0.1,0,0.2,0c0.1,0,0.2,0,0.3,0c0.1,0,0.2,0.1,0.2,0.1c0.1,0,0.1,0.1,0.1,0.2
		c-0.4,1.8-0.5,3.6-0.5,5.5s0.1,3.6,0.3,5.4c0.2-0.7,0.4-1.5,0.7-2.3c0.3-0.9,0.6-1.8,1-2.6c0.4-0.9,0.8-1.7,1.3-2.5s0.9-1.5,1.4-2
		c0.2-0.3,0.5-0.5,0.7-0.7s0.5-0.3,0.9-0.3c0.2,0,0.4,0,0.5,0.1c0.1,0.1,0.3,0.2,0.3,0.3c0.1,0.1,0.2,0.3,0.2,0.4
		c0,0.2,0.1,0.3,0.1,0.5c0.1,0.4,0.1,0.9,0.2,1.5c0.1,0.6,0.2,1.3,0.3,2c0.1,0.7,0.2,1.4,0.4,2.2c0.2,0.7,0.3,1.4,0.6,2
		c0.2,0.6,0.5,1.1,0.8,1.4c0.3,0.4,0.7,0.6,1.2,0.6c0.4,0,0.7-0.1,1.1-0.2c0.4-0.1,0.7-0.3,1-0.6c0.3-0.2,0.6-0.5,0.9-0.8
		c0.3-0.3,0.5-0.6,0.7-0.9L87.1,52.5z"/>
</g>
</svg>
