<?xml version="1.0" encoding="utf-8"?>
<!-- Generator: Adobe Illustrator 16.2.0, SVG Export Plug-In . SVG Version: 6.00 Build 0)  -->
<!DOCTYPE svg PUBLIC "-//W3C//DTD SVG 1.1//EN" "http://www.w3.org/Graphics/SVG/1.1/DTD/svg11.dtd">
<svg version="1.1" id="Layer_1" xmlns="http://www.w3.org/2000/svg" xmlns:xlink="http://www.w3.org/1999/xlink" x="0px" y="0px"
	 width="800px" height="800px" viewBox="0 0 800 800" enable-background="new 0 0 800 800" xml:space="preserve">
<g>
	<g>
		<linearGradient id="SVGID_1_" gradientUnits="userSpaceOnUse" x1="746.4688" y1="199.9668" x2="53.5323" y2="600.0337">
			<stop  offset="0" style="stop-color:#F0F0F0"/>
			<stop  offset="1" style="stop-color:#EBEBEB"/>
		</linearGradient>
		<circle fill="url(#SVGID_1_)" cx="400" cy="400" r="400"/>
		<linearGradient id="SVGID_2_" gradientUnits="userSpaceOnUse" x1="122.2681" y1="677.7324" x2="677.7324" y2="122.2681">
			<stop  offset="0" style="stop-color:#F7F7F7"/>
			<stop  offset="1" style="stop-color:#E8E8E8"/>
		</linearGradient>
		<circle fill="url(#SVGID_2_)" cx="400" cy="400" r="392.8"/>
		<linearGradient id="SVGID_3_" gradientUnits="userSpaceOnUse" x1="614.7061" y1="185.2954" x2="185.2948" y2="614.7067">
			<stop  offset="0" style="stop-color:#E3E3E3"/>
			<stop  offset="0.7796" style="stop-color:#FFFFFF"/>
		</linearGradient>
		<circle fill="url(#SVGID_3_)" cx="400" cy="400" r="303.6"/>
		<linearGradient id="SVGID_4_" gradientUnits="userSpaceOnUse" x1="601.9307" y1="198.0703" x2="198.07" y2="601.9309">
			<stop  offset="0.2688" style="stop-color:#FCFCFC"/>
			<stop  offset="0.9032" style="stop-color:#F7F7F7"/>
		</linearGradient>
		<circle fill="url(#SVGID_4_)" cx="400" cy="400" r="285.6"/>
	</g>
	<g>
		<path fill="#FF1D25" d="M309.9,226.6c0,4.1-0.4,8.5-1.1,13.3c-0.7,4.8-1.8,9.6-3.3,14.3c-1.5,4.8-3.4,9.3-5.7,13.8
			c-2.3,4.4-5,8.3-8.2,11.7c-3.2,3.4-6.8,6.1-10.9,8.1c-4.1,2.1-8.6,3.1-13.7,3.1c-5,0-9.5-0.9-13.3-2.8c-3.9-1.9-7.3-4.4-10.2-7.5
			c-2.9-3.1-5.4-6.7-7.4-10.9c-2-4.1-3.6-8.4-4.8-12.8c-1.2-4.5-2.1-8.9-2.7-13.4c-0.6-4.5-0.8-8.8-0.8-12.8c0-4.3,0.2-8.6,0.6-13.2
			c0.4-4.5,1.1-9,2.1-13.5c1-4.5,2.3-8.9,3.9-13.1c1.6-4.3,3.6-8.3,6-12c2.4-3.7,5.2-7.1,8.4-10.1c3.2-3,7-5.5,11.2-7.5l0.6,1.1
			c-3,2.5-5.6,5.3-7.9,8.5c-2.3,3.2-4.3,6.6-5.9,10.3c-1.7,3.7-3.1,7.5-4.2,11.6c-1.2,4-2.1,8.1-2.7,12.2c-0.7,4.1-1.2,8.1-1.5,12.2
			c-0.3,4-0.5,7.9-0.5,11.6c0,3.5,0.2,7.3,0.7,11.4c0.5,4.2,1.3,8.4,2.4,12.6c1.1,4.3,2.6,8.4,4.4,12.4c1.8,4,4,7.6,6.6,10.7
			c2.6,3.1,5.7,5.6,9.2,7.5c3.5,1.9,7.5,2.8,12,2.8c3.6,0,6.8-0.9,9.6-2.7c2.8-1.8,5.3-4.1,7.4-7c2.1-2.9,3.9-6.2,5.3-9.9
			c1.5-3.7,2.6-7.5,3.5-11.3c0.9-3.8,1.6-7.5,2-11.1c0.4-3.6,0.6-6.7,0.6-9.4c0-2.1-0.1-4.6-0.3-7.5c-0.2-2.9-0.6-5.9-1.1-9.2
			c-0.5-3.3-1.2-6.6-2-10.1c-0.8-3.5-1.8-6.8-3-10.1c-1.2-3.3-2.6-6.4-4.2-9.3c-1.6-2.9-3.4-5.5-5.4-7.7c-2.1-2.2-4.3-3.9-6.8-5.2
			c-2.5-1.3-5.3-1.9-8.3-1.9c-2.7,0-5,0.6-6.9,1.9c-1.9,1.3-3.4,2.9-4.6,4.9c-1.2,2-2,4.2-2.6,6.6c-0.5,2.4-0.8,4.8-0.8,7.1
			c0,0.3,0,0.6,0,1s0,0.7,0.2,1l-1.1,0.1c-0.2-1.1-0.3-2.2-0.4-3.3c-0.1-1.1-0.2-2.3-0.2-3.4c0-3.1,0.4-6.1,1.2-9
			c0.8-2.9,2.1-5.5,3.7-7.8c1.7-2.3,3.7-4.1,6.3-5.4c2.5-1.4,5.5-2.1,8.9-2.1c4.8,0,8.9,1,12.6,3.1c3.6,2.1,6.8,4.8,9.5,8.1
			c2.7,3.4,4.9,7.2,6.7,11.5c1.8,4.3,3.2,8.8,4.3,13.3c1.1,4.5,1.9,9,2.3,13.4C309.6,219.1,309.9,223,309.9,226.6z"/>
		<path fill="#FF1D25" d="M382.7,253.1c-1,1.8-2,3.5-3,5.2c-1.1,1.7-2.3,3.1-3.6,4.4c-1.4,1.3-2.9,2.3-4.6,3
			c-1.7,0.8-3.7,1.1-5.9,1.1c-2.5,0-4.7-0.6-6.5-1.8c-1.8-1.2-3.3-2.9-4.6-4.9c-1.3-2-2.3-4.3-3.1-6.9c-0.8-2.6-1.4-5.3-1.9-8
			c-0.5-2.7-0.9-5.4-1.1-8c-0.3-2.6-0.5-5-0.7-7.1c-1,0.8-2.1,2.2-3.5,4.3c-1.4,2.1-2.7,4.6-4.1,7.5c-1.4,2.9-2.7,6-4,9.3
			c-1.3,3.4-2.3,6.7-3.1,9.9c-0.1,0.7-0.4,1.4-0.7,2.2c-0.3,0.8-0.7,1.4-1.2,2.1c-0.5,0.6-1,1.2-1.7,1.6c-0.7,0.4-1.4,0.6-2.2,0.6
			c-1.3,0-2.2-0.5-2.8-1.4c-0.6-0.9-1-1.9-1.2-3.1c-1.5-6.4-2.5-12.4-3-18.2c-0.6-5.8-0.9-11.6-0.9-17.4c0-1.4,0.2-2.6,0.7-3.6
			c0.5-1,1.1-1.9,1.9-2.6c0.8-0.7,1.8-1.2,2.9-1.5c1.1-0.3,2.3-0.5,3.5-0.5c0.2,0,0.4,0,0.7,0c0.3,0,0.6,0,0.9,0.1
			c0.3,0.1,0.6,0.2,0.8,0.3c0.2,0.2,0.3,0.4,0.2,0.6c-1.3,6.6-1.9,13.2-1.9,20c0,6.8,0.4,13.3,1.1,19.6c0.6-2.5,1.4-5.3,2.4-8.5
			c1.1-3.2,2.3-6.4,3.8-9.6s3-6.3,4.7-9.2c1.7-2.9,3.4-5.4,5.1-7.4c0.9-1,1.7-1.8,2.6-2.4c0.9-0.7,2-1,3.3-1c0.8,0,1.4,0.1,1.9,0.5
			c0.5,0.3,0.9,0.7,1.2,1.1c0.3,0.5,0.6,1,0.8,1.5c0.2,0.6,0.3,1.1,0.4,1.7c0.3,1.5,0.5,3.3,0.8,5.6c0.3,2.3,0.6,4.8,0.9,7.4
			c0.4,2.6,0.8,5.2,1.4,7.8c0.6,2.6,1.3,5,2.1,7.1c0.9,2.1,1.9,3.9,3.1,5.2c1.2,1.4,2.6,2,4.3,2c1.4,0,2.7-0.3,3.9-0.8
			c1.3-0.5,2.5-1.2,3.6-2c1.2-0.8,2.2-1.8,3.2-2.9c1-1.1,1.9-2.1,2.7-3.2L382.7,253.1z"/>
		<path fill="#FF1D25" d="M576.8,298.7c-1.7,1.3-3.5,2.1-5.5,2.6c-2,0.5-4,0.7-6,0.7c-6.9,0-13-1-18.3-3c-5.3-2-10-4.8-14-8.4
			c-4-3.6-7.5-7.7-10.3-12.5c-2.8-4.8-5.2-10-7.1-15.5c-1.9-5.6-3.3-11.4-4.3-17.4c-1-6.1-1.7-12.1-2-18.1c-0.3-6-0.4-11.9-0.3-17.7
			c0.2-5.8,0.5-11.2,1-16.1c-0.9,1.4-2,3.5-3.3,6.5c-1.3,3-2.7,6.4-4.3,10.4c-1.6,4-3.2,8.3-4.9,13c-1.7,4.7-3.4,9.4-5.1,14.2
			c-1.7,4.8-3.3,9.4-4.9,14c-1.6,4.6-3,8.7-4.2,12.5c-1.2,3.8-2.3,6.9-3.2,9.6c-0.9,2.6-1.4,4.4-1.7,5.3c-0.2,0.6-0.5,1.4-0.8,2.3
			c-0.3,0.9-0.7,1.8-1.2,2.6c-0.5,0.9-1,1.6-1.7,2.2c-0.6,0.6-1.3,0.9-2.1,0.9c-0.9,0-1.7-0.4-2.3-1.1c-0.6-0.7-1.1-1.6-1.5-2.6
			c-0.4-1-0.7-2-0.9-3c-0.2-1-0.4-1.8-0.5-2.4c-0.3-2.1-0.6-4.8-0.8-8c-0.3-3.2-0.5-6.8-0.6-10.7c-0.2-3.9-0.3-8.1-0.4-12.5
			c-0.1-4.4-0.2-8.9-0.3-13.4c-0.1-4.5-0.1-8.9-0.2-13.2c0-4.3-0.1-8.4-0.1-12.2c0-3.8,0-7.2,0-10.2s0-5.4,0-7.2
			c-1.1,2.5-2.4,5.7-3.9,9.5c-1.5,3.9-3.2,8.2-5,13s-3.6,10-5.6,15.5c-1.9,5.5-3.8,11.2-5.7,17.1c-1.9,5.9-3.7,11.8-5.4,17.7
			c-1.7,6-3.3,11.7-4.6,17.3c-0.2,0.5-0.3,1.1-0.6,1.8c-0.2,0.7-0.5,1.4-0.9,2.1c-0.4,0.6-0.8,1.2-1.3,1.7c-0.5,0.5-1.2,0.7-1.9,0.7
			c-0.7,0-1.3-0.2-1.9-0.7c-0.6-0.5-1-1-1.4-1.6c-0.4-0.6-0.7-1.3-0.9-2c-0.2-0.7-0.4-1.4-0.4-2c-0.3-1.3-0.5-2.6-0.6-4.1
			c-0.2-1.5-0.3-3-0.4-4.6c-0.1-1.6-0.2-3.1-0.3-4.7c-0.1-1.5-0.2-2.9-0.3-4.2c-0.6-6.9-0.9-13.6-1.2-20.4
			c-0.2-6.7-0.3-13.5-0.3-20.3c0-6.7,0.1-13.4,0.3-20c0.2-6.6,0.6-13.3,1-20.1c0.2-2,0.4-4.1,0.7-6.6c0.3-2.4,0.9-4.7,1.8-6.9
			c0.9-2.2,2.2-4,3.8-5.4c1.7-1.5,4-2.2,6.9-2.2c0.7,0,1.3,0.2,1.8,0.5c0.5,0.3,0.8,0.9,0.8,1.7v0.8c-0.5,3-0.9,6-1.4,9
			c-0.5,3-0.9,6-1.4,9.1c-1.2,10-2.2,20-3,30s-1.2,20-1.2,30.2c0,4,0.1,7.9,0.2,11.7c0.2,3.9,0.4,7.7,0.8,11.6
			c3.5-10.7,6.5-20.2,9.1-28.5c2.6-8.3,4.9-15.5,6.9-21.7c2-6.2,3.7-11.5,5.1-15.9c1.4-4.4,2.5-8,3.5-11c1-3,1.7-5.3,2.3-7.1
			c0.6-1.8,1-3.2,1.4-4.1c0.3-1,0.6-1.7,0.8-2.1c0.2-0.5,0.3-0.9,0.5-1.2c0.8-1.7,1.8-3.2,3.1-4.6c1.3-1.4,3-2,5-2
			c1.4,0,2.5,0.4,3.4,1.1c0.9,0.7,1.6,1.6,2.1,2.6c0.5,1.1,0.8,2.2,1,3.5c0.2,1.3,0.3,2.4,0.3,3.5c-0.1,7.8-0.3,15.4-0.7,23
			c-0.3,7.6-0.7,15.1-0.9,22.6c-0.3,7.5-0.4,14.9-0.3,22.2c0,7.4,0.4,14.7,1,22c2-5.9,3.9-11.5,5.6-16.7c1.7-5.2,3.3-10.2,4.8-15
			c1.5-4.8,3-9.3,4.4-13.7c1.4-4.4,2.9-8.8,4.4-13.1c1.5-4.3,3.1-8.6,4.8-12.9c1.7-4.3,3.5-8.7,5.5-13.3c0.4-0.9,0.9-1.8,1.5-2.7
			c0.5-0.9,1.2-1.8,1.9-2.5s1.5-1.4,2.4-1.9c0.9-0.5,1.9-0.8,3-0.8c1.6,0,2.8,0.5,3.7,1.5c0.9,1,1.6,2.2,2.1,3.6
			c0.5,1.4,0.8,2.9,0.9,4.4c0.2,1.5,0.2,2.8,0.2,3.9c0,4.6-0.2,9.7-0.5,15.3c-0.3,5.6-0.5,11.4-0.6,17.4s-0.1,12.1,0.2,18.2
			c0.3,6.2,0.9,12.1,2,17.9c1.1,5.8,2.7,11.1,4.9,16.1c2.2,5,5.1,9.4,8.7,13.1c3.7,3.7,8.2,6.7,13.6,8.8c5.4,2.2,11.9,3.2,19.4,3.2
			c1.2,0,2.3-0.1,3.3-0.3c1.1-0.2,2.1-0.5,3.1-0.9L576.8,298.7z"/>
		<path fill="#FF1D25" d="M586.5,286.6c0,2.9-0.3,5.7-0.8,8.6c-0.6,2.9-1.4,5.6-2.4,8.3c-1.1,2.7-2.4,5.2-4,7.5
			c-1.6,2.3-3.4,4.3-5.5,6c-2.1,1.7-4.3,3.1-6.9,4.1c-2.5,1-5.3,1.5-8.2,1.5c-2.8,0-5.4-0.6-7.8-1.7c-2.5-1.1-4.6-2.6-6.4-4.4
			c-1.8-1.9-3.3-4-4.3-6.5c-1.1-2.5-1.6-5.1-1.6-7.8c0-3,0.6-5.9,1.8-8.6c1.2-2.8,2.8-5.3,4.8-7.6c2-2.3,4.3-4.3,6.8-6.1
			c2.5-1.8,5.1-3.1,7.8-4.1l0.4,0.9c-4.9,2.7-8.6,6.2-11.3,10.7c-2.7,4.5-4,9.5-4,15.1c0,2.3,0.3,4.4,0.9,6.5
			c0.6,2.1,1.6,3.9,2.8,5.5c1.3,1.6,2.8,2.9,4.7,3.9c1.9,1,4,1.5,6.5,1.5c3.4,0,6.2-0.9,8.5-2.8c2.3-1.9,4.1-4.2,5.4-6.9
			c1.4-2.8,2.3-5.8,2.9-9c0.6-3.3,0.9-6.3,0.9-9.2c0-3.1-0.2-6.1-0.7-9c-0.5-3-1.1-5.9-1.7-8.9c-0.7-3-1.4-5.9-2.1-8.9
			c-0.7-3-1.3-5.9-1.7-8.9c-1.1,1.3-2.2,2.4-3.4,3.6c-1.2,1.1-2.5,2.1-3.9,2.9s-2.8,1.5-4.4,2c-1.6,0.5-3.2,0.7-4.9,0.7
			c-2.6,0-4.8-0.5-6.7-1.4c-1.9-0.9-3.5-2.2-4.8-3.8c-1.3-1.6-2.3-3.5-3-5.6c-0.7-2.1-1-4.4-1-6.8c0-2.7,0.4-5.4,1.1-8
			c0.8-2.6,1.8-5.1,3.2-7.4c1.4-2.3,3-4.5,4.8-6.5c1.9-2,3.9-3.8,6-5.3l0.9,0.5c-2.2,3.1-3.8,6.4-5.1,10c-1.2,3.6-1.8,7.2-1.8,11
			c0,1.6,0.2,3.3,0.5,5.2c0.3,1.9,0.9,3.6,1.7,5.1c0.8,1.6,1.8,2.8,3.2,3.9c1.3,1,3,1.5,4.9,1.5c2.4,0,4.6-0.5,6.6-1.5
			c2.1-1,3.9-2.3,5.6-3.9c-0.2-1.9-0.2-3.7-0.2-5.6c0-2.6,0.2-5.2,0.5-8c0.3-2.8,1-5.4,1.9-7.9c0.9-2.5,2.2-4.8,3.8-6.9
			c1.6-2.1,3.7-3.8,6.2-5.1l0.6,0.3c-1.2,1.3-2.2,2.6-3,4.2c-0.8,1.5-1.4,3.1-1.9,4.8c-0.5,1.7-0.8,3.3-1,5.1
			c-0.2,1.7-0.3,3.4-0.3,5.1c0,4.6,0.5,8.9,1.4,12.8c0.9,4,2,7.8,3.1,11.6c1.1,3.8,2.2,7.6,3.1,11.5S586.5,282.3,586.5,286.6z"/>
	</g>
	<g>
		<path fill="#FF1D25" d="M182,576.3c0,3-1.7,4.5-5,4.5c-2.1,0-4.2-0.4-6.1-1.2c-1.9-0.8-3.7-1.7-5.3-2.7c-3.3-1.8-6.2-4.5-8.8-8
			c-2.5-3.5-4.7-7.6-6.4-12.2c-1.8-4.6-3.3-9.6-4.5-15c-1.2-5.4-2.2-10.9-3-16.5c-0.8-5.6-1.3-11.1-1.8-16.5
			c-0.4-5.5-0.7-10.5-0.8-15.3c-3.1-1.2-6.2-2.5-9.4-4c-3.2-1.5-6-3.2-8.5-5.1c-2.5-1.9-4.6-3.9-6.2-6.1c-1.6-2.2-2.4-4.5-2.4-7
			c0-1.9,0.5-3.7,1.4-5.2c0.9-1.6,2.4-2.3,4.6-2.3c1.8,0,3.5,0.4,5.1,1.2c1.6,0.8,3.2,1.8,4.8,3.1c1.6,1.3,3.3,2.8,5,4.4
			c1.7,1.7,3.5,3.3,5.5,5.1c0-10.9,0.4-22.5,1.1-34.8c0.7-12.3,2.1-24.5,4-36.8c1.9-12.3,4.5-24.2,7.8-35.9
			c3.3-11.7,7.4-22.4,12.4-32.3l2.9,1c-3.6,18.5-6.3,37.1-8,55.7c-1.7,18.6-2.5,37.2-2.5,55.8c0,6.9,0.2,13.6,0.6,20.3
			c0.4,6.7,0.9,13.4,1.7,20c3.2,1.3,6.8,2.3,10.8,3.1c4,0.8,8.4,1.1,13.2,1.1c8.1,0,15.7-1.2,22.7-3.7c7-2.5,13.4-5.9,19.3-10.2
			c5.8-4.3,11-9.4,15.5-15.3c4.5-5.9,8.3-12.2,11.4-19c3.1-6.8,5.5-13.9,7.1-21.2c1.6-7.3,2.4-14.7,2.4-22.1
			c0-7.3-0.8-14.7-2.4-22.2c-1.6-7.5-4-14.9-7.1-22c-3.2-7.1-7-13.8-11.6-20c-4.6-6.2-9.8-11.6-15.7-16.3
			c-5.9-4.7-12.4-8.4-19.5-11.1c-7.1-2.7-14.8-4.1-23-4.1c-6.7,0-13.7,1.2-20.9,3.7c-7.2,2.5-13.7,5.9-19.5,10.4
			c-5.8,4.4-10.7,9.8-14.5,16c-3.8,6.2-5.7,13-5.7,20.4c0,2.9,0.3,5.5,1,7.8c0.7,2.3,1.4,4.4,2.2,6.3c0.8,1.9,1.6,3.7,2.2,5.4
			c0.7,1.7,1,3.3,1,5.1c0,3.1-1,5.7-3.1,7.8c-2.1,2.1-4.6,3.1-7.6,3.1c-2.8,0-5-0.7-6.6-2.2c-1.6-1.5-2.9-3.4-3.8-5.6
			c-0.9-2.2-1.5-4.6-1.8-7.1c-0.3-2.5-0.4-4.7-0.4-6.7c0-9.4,2.2-18,6.7-25.6c4.4-7.7,10.3-14.5,17.4-20.5c4.5-3.9,9-7.3,13.6-10.2
			c4.5-2.9,9.2-5.4,14.1-7.4c4.8-2,9.9-3.5,15.2-4.5c5.3-1,10.9-1.5,16.9-1.5c13.9,0,26.8,2.4,38.5,7.1
			c11.8,4.8,21.9,11.4,30.4,19.9c8.5,8.5,15.2,18.6,19.9,30.4c4.8,11.7,7.1,24.6,7.1,38.6c0,14.5-2.5,28-7.6,40.6
			c-5.1,12.6-12.2,23.6-21.2,32.9c-9.1,9.4-19.8,16.7-32.2,22.1c-12.4,5.4-26,8-40.6,8c-3.7,0-7.5-0.2-11.4-0.6
			c-3.9-0.4-7.7-1-11.4-1.6c3.5,24.2,10,48.1,19.3,71.6c0.3,0.9,0.6,1.7,0.9,2.7C181.9,574.6,182,575.4,182,576.3z"/>
		<path fill="#FF1D25" d="M387.3,506.6c-3.4,7.1-8.2,12.7-14.5,16.8c-6.2,4.1-13.3,6.2-21.2,6.2c-6.5,0-12.4-2-17.5-5.9
			c-5.1-4-9.7-9.2-13.6-15.6c-3.9-6.4-7.2-13.7-10-21.8c-2.7-8.1-5-16.3-6.7-24.7c-1.8-8.4-3.1-16.4-3.9-24.2
			c-0.8-7.8-1.2-14.5-1.2-20.3c0-7.1,0.4-14.8,1.1-23.3c0.7-8.5,2-17,3.7-25.6c1.7-8.6,3.9-17,6.7-25.1c2.7-8.1,6-15.3,10-21.6
			c3.9-6.3,8.4-11.3,13.6-15.1c5.1-3.8,11-5.7,17.7-5.7c5.7,0,10.3,1.7,13.8,5c3.5,3.3,6.3,7.4,8.4,12.3c2,4.9,3.4,10,4.1,15.5
			c0.7,5.5,1,10.3,1,14.6c0,11.6-1.4,22.9-4.1,34.1c-2.7,11.2-6.5,21.7-11.2,31.6c-4.8,9.9-10.4,18.9-16.8,27
			c-6.4,8.1-13.3,14.9-20.7,20.3c1.5,7.2,3.3,14.2,5.4,21c2.1,6.8,4.6,12.8,7.6,18.1c3,5.3,6.4,9.6,10.4,12.8
			c3.9,3.3,8.4,4.9,13.4,4.9c5,0,9.4-1,13-3.1c3.6-2,7-5,10.1-9L387.3,506.6z M321.1,407.5c-0.1,2.4-0.1,5.2-0.1,8.7
			c0.1,3.4,0.2,7.2,0.5,11.3c0.3,4.1,0.7,8.5,1.2,13.3c0.5,4.7,1.2,9.5,2.1,14.5c7.2-6.4,13.3-13.5,18.3-21.4
			c5-7.8,9.2-16.2,12.4-25.3c3.2-9,5.5-18.6,7-28.6c1.4-10,2.2-20.4,2.2-31.2c0-1.4,0-3.2-0.1-5.5c-0.1-2.2-0.2-4.7-0.6-7.2
			c-0.3-2.6-0.8-5.1-1.4-7.7c-0.6-2.6-1.4-4.9-2.4-7c-1-2.1-2.3-3.8-3.9-5.1c-1.6-1.3-3.4-2-5.5-2c-4.1,0-7.6,2-10.7,6
			c-3.1,4-5.7,9.1-7.9,15.3c-2.2,6.2-4,13.1-5.5,20.6c-1.4,7.5-2.6,14.7-3.5,21.6c-0.9,6.9-1.4,13.1-1.8,18.6
			C321.3,401.7,321.1,405.5,321.1,407.5z"/>
		<path fill="#FF1D25" d="M461,440.1c0,1.2-0.4,2.2-1.3,3.1c-0.9,0.9-1.9,1.4-3.1,1.4c-1,0-2-0.3-3.1-0.9c-1.1-0.6-2.3-1.3-3.6-2
			c-1.3-0.7-2.9-1.4-4.7-2c-1.8-0.6-3.8-0.9-6-0.9c-5.2,0-9.9,1.6-14.1,4.9c-4.1,3.3-7.6,7.3-10.4,12.1c-2.8,4.8-5,10-6.5,15.4
			c-1.5,5.5-2.2,10.4-2.2,14.8c0,3.1,0.3,6.1,0.8,9.1c0.5,2.9,1.5,5.6,2.8,8c1.3,2.4,3.2,4.3,5.5,5.8c2.4,1.4,5.4,2.2,9,2.2
			c3.9,0,7.5-0.7,11.1-2.2c3.5-1.4,6.9-3.3,10-5.7c0.1-3.4,0.7-7,1.7-10.8c1-3.8,2.3-7.5,3.9-11.2c1.6-3.7,3.5-7.2,5.5-10.5
			c2.1-3.3,4.3-6.3,6.5-8.8l2.1,1.3c-1.2,3.6-2,7.4-2.6,11.2c-0.5,3.9-0.8,7.7-0.8,11.4c0,3.9,0.3,7.5,1,10.9
			c0.6,3.4,1.8,6.4,3.4,8.9c1.6,2.5,3.8,4.5,6.6,5.9c2.8,1.4,6.4,2.2,10.8,2.2c5.4,0,10.3-1.2,14.8-3.7c4.5-2.5,8.5-5.6,11.9-9.3
			l1.3,0.6c-1.9,3.8-4.4,7.3-7.6,10.8c-3.1,3.4-6.6,6.5-10.4,9.2c-3.8,2.7-7.8,4.9-12.1,6.5c-4.3,1.6-8.5,2.4-12.7,2.4
			c-5.9,0-10.7-1.7-14.5-5.1c-3.8-3.4-6.3-7.6-7.7-12.8c-4.5,4.5-9.5,8.3-15,11.3c-5.5,3.1-11.3,4.6-17.4,4.6c-4.5,0-8.5-0.8-12-2.5
			c-3.5-1.7-6.4-3.9-8.8-6.7c-2.4-2.8-4.2-6.1-5.4-9.9c-1.2-3.8-1.8-7.8-1.8-12c0-4.8,0.8-9.8,2.3-14.9c1.6-5.1,3.7-10.1,6.4-15
			c2.7-4.9,6-9.6,9.7-14c3.7-4.4,7.8-8.2,12.3-11.6c4.4-3.3,9.1-5.9,14.1-7.9c4.9-1.9,10-2.9,15.1-2.9c1.2,0,2.6,0.1,4.3,0.4
			c1.7,0.3,3.4,0.7,5,1.4c1.6,0.6,3,1.6,4.1,2.7C460.5,436.8,461,438.3,461,440.1z"/>
		<path fill="#FF1D25" d="M609.6,501.3c-2.4,4-5.1,7.7-8.3,11.1c-3.2,3.4-6.6,6.4-10.4,9c-3.8,2.6-7.9,4.6-12.3,6
			c-4.4,1.4-8.9,2.2-13.7,2.2c-7,0-13.1-1.2-18.4-3.5c-5.3-2.4-9.9-5.5-13.7-9.6s-7.1-8.7-9.6-14.1c-2.6-5.4-4.6-10.9-6.1-16.8
			c-1.5-5.8-2.6-11.8-3.2-17.9s-1-11.9-1-17.5c0-5.1,0.2-10.4,0.6-15.8c0.4-5.4,1.1-10.9,1.9-16.6c-3.3,0.1-6.6,0.2-9.7,0.2
			s-6.3,0-9.4,0c-2,0-4.3-0.1-6.9-0.2c-2.6-0.1-5-0.5-7.2-1.3c-2.3-0.7-4.1-1.9-5.6-3.4c-1.5-1.5-2.2-3.7-2.2-6.6
			c0-1.6,0.3-2.9,0.9-3.9c0.6-1,1.4-1.7,2.4-2.2c1-0.5,2.2-0.8,3.5-1c1.3-0.2,2.7-0.2,4.1-0.2c1.6,0,5.4,0.3,11.4,0.8
			c6,0.5,13.2,1.1,21.7,1.8c2.7-12.6,6.1-25.1,10.4-37.3c4.2-12.2,9-23.3,14.4-33.4h2.3c-3.4,11.7-6.5,23.5-9.1,35.3
			c-2.6,11.9-4.6,23.9-5.9,36.1c7.8,0.5,15.9,1,24.2,1.4c8.3,0.4,16.4,0.6,24.3,0.6c11.7,0,21.1-0.1,28.4-0.3
			c7.3-0.2,13-0.5,17.2-0.8c4.9-0.4,8.6-0.9,11.1-1.3l0.6,2.7c-6.4,1.5-13.8,2.9-22,4.3c-8.2,1.3-17,2.5-26.3,3.5
			c-9.3,1-19,1.9-28.9,2.7c-10,0.8-19.9,1.3-29.7,1.8c-0.2,2.1-0.3,4.3-0.3,6.5c0,2.2,0,4.4,0,6.5c0,5.1,0.2,10.8,0.7,17
			c0.5,6.2,1.4,12.4,2.6,18.7c1.3,6.3,3,12.4,5.2,18.3c2.2,5.9,5.1,11.2,8.7,15.7c3.6,4.6,7.9,8.2,12.9,11c5,2.8,11,4.2,17.8,4.2
			c6.3,0,12-1.4,17.1-4.2c5.1-2.8,9.9-6.2,14.5-10.3L609.6,501.3z"/>
		<path fill="#FF1D25" d="M703.4,501.3c-2.8,4.1-6.1,7.9-10,11.4c-3.9,3.5-8.2,6.6-12.8,9.2c-4.7,2.6-9.5,4.6-14.6,6.1
			c-5.1,1.5-10.2,2.2-15.3,2.2c-7.3,0-14.1-0.9-20.4-2.8c-6.3-1.9-11.8-4.7-16.5-8.6c-4.7-3.9-8.4-8.7-11.1-14.5
			c-2.7-5.8-4-12.7-4-20.5c0-7.7,1.4-14.9,4.3-21.6c2.8-6.7,6.7-12.5,11.7-17.5c5-5,10.8-8.9,17.6-11.8c6.7-2.9,14-4.3,21.7-4.3
			c3.6,0,7,0.5,10.2,1.5c3.2,1,5.9,2.5,8.3,4.5c2.4,2,4.2,4.4,5.5,7.3c1.3,2.9,2,6.2,2,10c0,4.5-0.9,8.5-2.7,11.9
			c-1.8,3.4-4.2,6.4-7.2,9c-3,2.6-6.4,4.7-10.2,6.4c-3.8,1.7-7.8,3.1-11.9,4.2c-4.1,1.1-8.2,1.8-12.2,2.3s-7.7,0.7-11,0.7h-3.9
			c1.4,9.7,5.2,17.2,11.6,22.3c6.3,5.1,15,7.7,26.2,7.7c7.9,0,15.7-1.4,23.2-4.2c7.5-2.8,14.4-6.6,20.5-11.6L703.4,501.3z
			 M620.2,481.5h4c3.9,0,7.8-0.6,11.9-1.8c4.1-1.2,7.7-3.1,11-5.5c3.3-2.4,6-5.4,8.1-8.9c2.1-3.5,3.2-7.5,3.2-12
			c0-4.4-0.9-8-2.8-10.9c-1.9-2.9-5.1-4.3-9.7-4.3c-4.7,0-8.7,1.4-12,4.3c-3.3,2.8-5.9,6.3-7.9,10.4c-2,4.1-3.5,8.5-4.4,13
			c-0.9,4.6-1.4,8.6-1.4,12.1V481.5z"/>
	</g>
</g>
</svg>
