<?xml version="1.0" encoding="utf-8"?>
<!-- Generator: Adobe Illustrator 16.2.0, SVG Export Plug-In . SVG Version: 6.00 Build 0)  -->
<!DOCTYPE svg PUBLIC "-//W3C//DTD SVG 1.1//EN" "http://www.w3.org/Graphics/SVG/1.1/DTD/svg11.dtd">
<svg version="1.1" id="Layer_1" xmlns="http://www.w3.org/2000/svg" xmlns:xlink="http://www.w3.org/1999/xlink" x="0px" y="0px"
	 width="100px" height="100px" viewBox="0 0 100 100" enable-background="new 0 0 100 100" xml:space="preserve">
<g>
	<circle fill="#CC99CC" cx="50" cy="50" r="50"/>
	<path fill="#FFFFFF" d="M77.3,72.9C77.3,72.8,77.3,72.8,77.3,72.9L54.7,51.3l7.3-7.8c4.1,2.1,10.4,0.3,15.2-4.5
		c5.6-5.6,7-13.1,3.2-16.9c-3.8-3.8-11.4-2.3-16.9,3.2c-4.9,4.9-6.6,11.4-4.3,15.4L51.3,48l-7.1-6.8c-0.7-0.8-1.8-2.3-0.8-3.7
		c1.4-1.8-0.5-3.6-0.5-3.6l-0.1-0.1l-4.6-4.6L27.5,18.5c-0.4-0.4-1-0.4-1.4,0L26,18.6c-0.4,0.4-0.4,1,0,1.4l10.8,10.8
		c0.3,0.3,0.2,0.8-0.1,1.1c-0.3,0.3-0.8,0.3-1.1,0.1L24.8,21.1c-0.4-0.4-1-0.4-1.4,0l-0.1,0.1c-0.4,0.4-0.4,1,0,1.4l10.8,10.8
		c0.3,0.3,0.2,0.8-0.1,1.1c-0.3,0.3-0.8,0.3-1.1,0.1L22.2,23.8c-0.4-0.4-1-0.4-1.4,0l-0.1,0.1c-0.4,0.4-0.4,1,0,1.4l10.8,10.8
		c0.3,0.3,0.2,0.8-0.1,1.1c-0.3,0.3-0.8,0.3-1.1,0.1L19.5,26.5c-0.4-0.4-1-0.4-1.4,0L18,26.6c-0.4,0.4-0.4,1,0,1.4l10.7,10.7
		l4.6,4.6l0.1,0.1c0,0,1.8,1.8,3.6,0.5c1.5-1.2,3.1,0.2,3.8,0.9l6.4,7L24.7,72.4c0,0-0.1,0.1-0.1,0.1L24.1,73
		c-0.6,0.6-0.6,1.6,0,2.2l3.2,3.2c0.6,0.6,1.6,0.6,2.2,0l0.5-0.4c0,0-0.1,0.1-0.1,0.1h0l20.9-22.4l20.8,22.8c0,0,0.1,0.1,0.1,0.1
		l0.1,0.1c0.6,0.6,1.6,0.6,2.2,0l3.5-3.5c0.6-0.6,0.6-1.6,0-2.2L77.3,72.9z"/>
</g>
</svg>
