<?xml version="1.0" encoding="utf-8"?>
<!-- Generator: Adobe Illustrator 16.2.0, SVG Export Plug-In . SVG Version: 6.00 Build 0)  -->
<!DOCTYPE svg PUBLIC "-//W3C//DTD SVG 1.1//EN" "http://www.w3.org/Graphics/SVG/1.1/DTD/svg11.dtd">
<svg version="1.1" id="Layer_1" xmlns="http://www.w3.org/2000/svg" xmlns:xlink="http://www.w3.org/1999/xlink" x="0px" y="0px"
	 width="100px" height="100px" viewBox="0 0 100 100" enable-background="new 0 0 100 100" xml:space="preserve">
<circle fill="#FFFFFF" cx="50" cy="50" r="50"/>
<g>
	<path fill="#FF1D25" d="M26.1,38.6c0,0.9-0.2,1.7-0.6,2.4c-0.4,0.8-1,1.4-1.7,2c-0.7,0.6-1.5,1-2.3,1.3c-0.8,0.3-1.7,0.5-2.5,0.4
		h-0.3v-0.3c0.7-0.1,1.4-0.4,2-0.8c0.6-0.4,1.2-0.8,1.6-1.4s0.8-1.1,1.1-1.8c0.3-0.7,0.4-1.4,0.4-2.1c0-0.5-0.1-0.9-0.2-1.4
		c-0.1-0.4-0.3-0.8-0.5-1.1c-0.2-0.3-0.6-0.6-0.9-0.7c-0.4-0.2-0.8-0.3-1.4-0.3c-0.7,0-1.5,0.1-2.3,0.3c-0.8,0.2-1.5,0.5-2.2,0.9
		c-0.7,0.4-1.4,0.9-2,1.4c-0.6,0.6-1.2,1.2-1.6,1.8c-0.5,0.7-0.8,1.4-1.1,2.1c-0.3,0.7-0.4,1.5-0.4,2.3c0,0.8,0.1,1.5,0.4,2.2
		c0.2,0.6,0.6,1.1,1,1.6c0.4,0.5,0.9,0.8,1.4,1.2c0.5,0.3,1.1,0.6,1.7,0.9c0.6,0.3,1.2,0.5,1.9,0.7c0.6,0.2,1.3,0.5,1.9,0.7
		c0.6,0.3,1.2,0.5,1.7,0.9c0.5,0.3,1,0.7,1.4,1.1s0.7,0.9,1,1.5c0.2,0.6,0.4,1.3,0.4,2.1c0,0.9-0.2,1.7-0.5,2.3
		c-0.4,0.7-0.8,1.3-1.4,1.7c-0.6,0.5-1.3,0.8-2,1.1c-0.8,0.2-1.5,0.4-2.3,0.4c-0.9,0-1.7-0.1-2.4-0.4s-1.4-0.7-2-1.2
		c-0.6-0.5-1.1-1.1-1.5-1.7c-0.4-0.6-0.8-1.3-1.1-2l0.2-0.1c0.3,0.6,0.7,1.1,1.1,1.7c0.4,0.5,0.9,1,1.4,1.5c0.5,0.4,1.1,0.8,1.7,1
		c0.6,0.3,1.3,0.4,2.1,0.4c0.6,0,1.2-0.1,1.7-0.3c0.5-0.2,1-0.4,1.4-0.7c0.4-0.3,0.7-0.7,0.9-1.2c0.2-0.5,0.3-1,0.3-1.6
		c0-0.9-0.2-1.6-0.6-2.2c-0.4-0.6-0.9-1-1.5-1.4s-1.3-0.7-2.1-1c-0.8-0.3-1.6-0.6-2.4-0.8s-1.6-0.6-2.4-1c-0.8-0.4-1.5-0.8-2.1-1.4
		c-0.6-0.5-1.1-1.2-1.5-2s-0.6-1.8-0.6-3c0-1.1,0.2-2.1,0.5-3c0.3-0.9,0.8-1.8,1.4-2.6c0.6-0.8,1.3-1.5,2.1-2.1
		c0.8-0.6,1.6-1.2,2.5-1.6c0.9-0.4,1.9-0.8,2.9-1c1-0.2,2-0.3,3-0.3c0.7,0,1.4,0.1,2,0.3c0.6,0.2,1.2,0.4,1.6,0.8
		c0.5,0.4,0.8,0.8,1.1,1.4C25.9,37.2,26.1,37.9,26.1,38.6z"/>
	<path fill="#FF1D25" d="M34.4,53.9c-0.2,0.4-0.5,0.8-0.9,1.1c-0.3,0.3-0.7,0.6-1.1,0.9c-0.4,0.3-0.8,0.4-1.3,0.6
		c-0.5,0.1-0.9,0.2-1.4,0.2c-0.6,0-1.1-0.1-1.6-0.3c-0.5-0.2-0.9-0.5-1.2-0.8s-0.6-0.8-0.7-1.3c-0.2-0.5-0.2-1-0.2-1.6
		c0-0.6,0.1-1.2,0.3-1.8c0.2-0.6,0.4-1.1,0.8-1.6c0.3-0.5,0.7-0.9,1.1-1.3s0.9-0.8,1.4-1.1l0.2,0.1c-0.5,0.6-0.9,1.3-1.3,2.1
		S28,50.7,28,51.6c0,0.5,0.1,0.9,0.2,1.4c0.1,0.4,0.3,0.8,0.5,1.2c0.2,0.3,0.5,0.6,0.9,0.8s0.8,0.3,1.4,0.3c0.6,0,1.2-0.1,1.8-0.4
		S33.9,54.3,34.4,53.9L34.4,53.9z M30,43.3c0,0.2,0,0.4-0.1,0.6s-0.2,0.4-0.4,0.6s-0.3,0.3-0.5,0.4c-0.2,0.1-0.4,0.2-0.6,0.2
		c-0.3,0-0.5-0.1-0.7-0.3c-0.2-0.2-0.2-0.4-0.2-0.7c0-0.2,0-0.4,0.1-0.6s0.2-0.4,0.4-0.6c0.2-0.2,0.3-0.3,0.5-0.4
		c0.2-0.1,0.4-0.2,0.6-0.2c0.3,0,0.5,0.1,0.7,0.3C29.9,42.8,30,43,30,43.3z"/>
	<path fill="#FF1D25" d="M42.2,61.1c0,0.9-0.1,1.7-0.3,2.6c-0.2,0.9-0.5,1.7-1,2.5c-0.4,0.8-1,1.4-1.7,1.9s-1.5,0.8-2.5,1
		c-0.1,0-0.2,0-0.3,0c-0.1,0-0.2,0-0.3,0c-0.6,0-1.1-0.1-1.7-0.4s-1-0.6-1.4-1s-0.7-0.9-0.9-1.4c-0.2-0.5-0.3-1.1-0.3-1.7
		c0-0.6,0.1-1.3,0.4-1.8c0.3-0.6,0.6-1.1,1-1.6s0.9-0.9,1.4-1.3c0.5-0.4,1.1-0.7,1.7-0.9l0.1,0.2c-1,0.6-1.8,1.3-2.4,2.3
		c-0.6,1-0.8,2-0.8,3.2c0,0.5,0.1,0.9,0.2,1.4c0.1,0.5,0.3,0.9,0.6,1.2c0.3,0.3,0.6,0.6,1,0.8s0.9,0.3,1.4,0.3
		c0.7,0,1.3-0.2,1.8-0.6s0.9-0.9,1.2-1.4c0.3-0.6,0.5-1.2,0.6-1.9c0.1-0.7,0.2-1.3,0.2-1.9c0-0.5,0-1-0.1-1.5
		c-0.1-0.5-0.1-1-0.2-1.5s-0.1-1-0.2-1.5c-0.1-0.5-0.1-1-0.1-1.5c0-0.4,0-0.7,0-1.1c0-0.4,0.1-0.8,0.2-1.2c-0.5,0.6-1,1-1.6,1.4
		c-0.6,0.4-1.3,0.6-2,0.6c-0.4,0-0.8-0.1-1.2-0.2c-0.3-0.2-0.6-0.4-0.9-0.7c-0.2-0.3-0.4-0.6-0.5-1c-0.1-0.4-0.2-0.8-0.2-1.2
		c0-0.5,0.1-1,0.2-1.5c0.2-0.5,0.4-1,0.6-1.5c0.3-0.5,0.6-0.9,1-1.4s0.8-0.8,1.2-1.1c0.4-0.3,0.9-0.6,1.4-0.8s1-0.3,1.5-0.3
		c0.3,0,0.5,0,0.8,0.1c0.3,0.1,0.5,0.2,0.7,0.3s0.4,0.3,0.5,0.5c0.1,0.2,0.2,0.5,0.2,0.8c0,0.2,0,0.4-0.1,0.6
		c-0.1,0.2-0.2,0.3-0.4,0.5c-0.1,0.1-0.3,0.3-0.5,0.4c-0.2,0.1-0.4,0.2-0.5,0.3l-0.1-0.2c0.1-0.1,0.1-0.2,0.2-0.4c0-0.1,0-0.3,0-0.4
		c0-0.2,0-0.4-0.1-0.6c-0.1-0.2-0.1-0.4-0.3-0.5s-0.3-0.3-0.4-0.4c-0.2-0.1-0.4-0.2-0.6-0.2c-0.5,0-1,0.1-1.5,0.4
		c-0.4,0.3-0.8,0.7-1.1,1.1c-0.3,0.4-0.5,0.9-0.7,1.5c-0.2,0.5-0.2,1-0.2,1.5c0,0.3,0,0.6,0.1,0.9c0.1,0.3,0.2,0.6,0.3,0.9
		s0.3,0.5,0.6,0.6c0.2,0.2,0.5,0.2,0.9,0.2c0.6,0,1.1-0.2,1.6-0.5s0.9-0.7,1.3-1.1c0.1-0.4,0.3-0.8,0.6-1.2c0.2-0.4,0.5-0.7,0.9-1
		l0.3,0.2c-0.2,0.4-0.4,0.8-0.5,1.3c-0.1,0.5-0.1,1-0.1,1.5c0,0.6,0,1.1,0.1,1.7c0.1,0.6,0.2,1.1,0.3,1.7c0.1,0.6,0.2,1.2,0.3,1.7
		C42.1,59.9,42.2,60.5,42.2,61.1z"/>
	<path fill="#FF1D25" d="M57.5,53.9c-0.2,0.4-0.4,0.8-0.6,1.1c-0.2,0.4-0.5,0.7-0.8,0.9s-0.6,0.5-1,0.6s-0.8,0.2-1.2,0.2
		c-0.5,0-1-0.1-1.4-0.4c-0.4-0.3-0.7-0.6-1-1c-0.3-0.4-0.5-0.9-0.7-1.5c-0.2-0.6-0.3-1.1-0.4-1.7c-0.1-0.6-0.2-1.1-0.2-1.7
		c-0.1-0.6-0.1-1.1-0.1-1.5c-0.2,0.2-0.4,0.5-0.7,0.9c-0.3,0.5-0.6,1-0.9,1.6c-0.3,0.6-0.6,1.3-0.9,2s-0.5,1.4-0.7,2.1
		c0,0.1-0.1,0.3-0.2,0.5s-0.2,0.3-0.3,0.4c-0.1,0.1-0.2,0.2-0.4,0.3S45.9,57,45.7,57c-0.3,0-0.5-0.1-0.6-0.3
		c-0.1-0.2-0.2-0.4-0.3-0.7c-0.3-1.4-0.5-2.6-0.6-3.9c-0.1-1.2-0.2-2.5-0.2-3.7c0-0.3,0.1-0.6,0.2-0.8c0.1-0.2,0.2-0.4,0.4-0.5
		c0.2-0.1,0.4-0.3,0.6-0.3s0.5-0.1,0.7-0.1c0,0,0.1,0,0.2,0s0.1,0,0.2,0c0.1,0,0.1,0,0.2,0.1c0,0,0.1,0.1,0,0.1
		c-0.3,1.4-0.4,2.8-0.4,4.3c0,1.4,0.1,2.8,0.2,4.2c0.1-0.5,0.3-1.1,0.5-1.8c0.2-0.7,0.5-1.4,0.8-2c0.3-0.7,0.6-1.3,1-2
		c0.4-0.6,0.7-1.1,1.1-1.6c0.2-0.2,0.4-0.4,0.6-0.5c0.2-0.1,0.4-0.2,0.7-0.2c0.2,0,0.3,0,0.4,0.1c0.1,0.1,0.2,0.1,0.3,0.2
		s0.1,0.2,0.2,0.3c0,0.1,0.1,0.2,0.1,0.4c0.1,0.3,0.1,0.7,0.2,1.2c0.1,0.5,0.1,1,0.2,1.6c0.1,0.6,0.2,1.1,0.3,1.7
		c0.1,0.6,0.3,1.1,0.4,1.5c0.2,0.5,0.4,0.8,0.7,1.1s0.6,0.4,0.9,0.4c0.3,0,0.6-0.1,0.8-0.2c0.3-0.1,0.5-0.3,0.8-0.4s0.5-0.4,0.7-0.6
		c0.2-0.2,0.4-0.5,0.6-0.7L57.5,53.9z"/>
	<path fill="#FF1D25" d="M82.2,36.7c0.1,0,0.3,0,0.4,0.1c0.1,0.1,0.2,0.2,0.2,0.3c0,0.2,0,0.4-0.1,0.6s-0.2,0.4-0.3,0.6
		c-0.1,0.2-0.2,0.4-0.3,0.6c-0.1,0.2-0.2,0.4-0.3,0.6c-0.6,1.6-1.1,3.3-1.4,5C80.1,46.3,80,48,80,49.8c0,1,0,2,0.1,3.1
		c0.1,1.1,0.3,2.1,0.5,3.1c0.2,1,0.5,2.1,0.9,3.1c0.4,1,0.8,1.9,1.3,2.8L82.5,62c-1-1.1-1.9-2.3-2.6-3.6s-1.3-2.7-1.6-4.2
		c-0.3,0.9-0.6,1.9-1,2.8c-0.4,0.9-0.9,1.7-1.4,2.5s-1.2,1.3-2,1.8c-0.8,0.4-1.7,0.7-2.7,0.7c-0.8,0-1.5-0.2-2.1-0.5
		s-1.1-0.7-1.6-1.3c-0.4-0.5-0.8-1.1-1.1-1.8s-0.6-1.4-0.7-2.1c-0.2-0.7-0.3-1.4-0.4-2.2c-0.1-0.7-0.1-1.4-0.1-2
		c0-1.5,0.1-3.1,0.4-4.6c0.2-1.5,0.6-3.1,1-4.5s1-2.9,1.7-4.3c0.7-1.4,1.5-2.7,2.4-3.9l0.3,0.2c-0.4,0.7-0.8,1.5-1.1,2.3
		c-0.3,0.8-0.6,1.7-0.9,2.6c-0.3,0.9-0.5,1.8-0.7,2.8c-0.2,0.9-0.3,1.9-0.5,2.8c-0.1,0.9-0.2,1.9-0.3,2.8c-0.1,0.9-0.1,1.7-0.1,2.5
		c0,0.5,0,1.1,0,1.7c0,0.7,0.1,1.3,0.2,2c0.1,0.7,0.2,1.4,0.4,2.1c0.2,0.7,0.5,1.3,0.8,1.8c0.3,0.5,0.7,1,1.2,1.3
		c0.5,0.3,1.1,0.5,1.8,0.5c0.7,0,1.3-0.1,1.8-0.4c0.5-0.2,1-0.6,1.4-1c0.4-0.4,0.8-0.9,1.1-1.4s0.6-1.1,0.8-1.8
		c0.2-0.6,0.4-1.3,0.5-1.9c0.1-0.7,0.2-1.3,0.3-1.9c-0.1-0.6-0.1-1.2-0.1-1.9c0-0.9,0-1.8,0.1-2.8c0.1-1,0.2-2,0.4-3
		c0.2-1,0.4-2,0.7-2.9s0.6-1.8,1-2.6c0.1-0.2,0.3-0.5,0.4-0.7c0.1-0.2,0.3-0.4,0.5-0.6c0.2-0.2,0.4-0.3,0.6-0.4
		C81.7,36.8,81.9,36.7,82.2,36.7z"/>
	<path fill="#FF1D25" d="M93.8,50.5c0,0.6-0.1,1.2-0.3,1.9c-0.2,0.6-0.5,1.2-1,1.8s-0.9,1-1.4,1.3c-0.6,0.3-1.2,0.5-1.8,0.5
		c-0.2,0-0.5,0-0.7-0.1c-0.2-0.1-0.5-0.2-0.7-0.4c-0.2-0.2-0.4-0.3-0.5-0.6c-0.1-0.2-0.2-0.5-0.2-0.7c0-0.1,0.1-0.2,0.2-0.3
		c0.1-0.1,0.2-0.1,0.4-0.1c0.2,0,0.3,0.1,0.4,0.2c0.1,0.2,0.2,0.3,0.4,0.5c0.1,0.2,0.3,0.4,0.5,0.5s0.4,0.2,0.7,0.2
		c0.4,0,0.7-0.1,1-0.4c0.3-0.3,0.5-0.6,0.8-1s0.4-0.8,0.5-1.2c0.1-0.4,0.2-0.8,0.2-1.1c0-0.4-0.1-0.8-0.2-1.2
		c-0.1-0.4-0.3-0.7-0.5-1c-0.2-0.3-0.5-0.5-0.8-0.7s-0.7-0.3-1.2-0.3c-0.5,0-1,0.2-1.3,0.5c-0.4,0.4-0.7,0.8-0.9,1.4
		c-0.2,0.5-0.4,1.2-0.5,1.8c-0.1,0.7-0.2,1.4-0.3,2c-0.1,0.7-0.1,1.3-0.1,1.8c0,0.6,0,1,0,1.3c0,1.5,0,2.9-0.1,4.2
		c-0.1,1.2-0.2,2.4-0.4,3.4c-0.1,1-0.3,1.9-0.5,2.7c-0.2,0.8-0.4,1.5-0.7,2.1h-0.4V62c0-2.3,0-4.7-0.1-7c-0.1-2.3-0.1-4.6-0.1-7
		c0-0.2,0.1-0.5,0.2-0.6c0.1-0.2,0.2-0.3,0.4-0.4c0.2-0.1,0.4-0.2,0.6-0.2c0.2,0,0.4-0.1,0.7-0.1c0.1,0,0.2,0,0.3,0
		c0.1,0,0.2,0.1,0.2,0.2c0,0.7,0,1.5,0,2.2c0,0.7,0,1.5,0,2.2c0.1-0.5,0.3-1,0.6-1.6s0.5-1,0.9-1.5s0.7-0.8,1.2-1.1
		c0.5-0.3,1-0.4,1.6-0.4c0.5,0,1,0.1,1.4,0.3c0.4,0.2,0.7,0.5,1,0.8c0.3,0.4,0.5,0.8,0.6,1.2S93.8,50,93.8,50.5z"/>
</g>
</svg>
