<?xml version="1.0" encoding="utf-8"?>
<!-- Generator: Adobe Illustrator 16.2.0, SVG Export Plug-In . SVG Version: 6.00 Build 0)  -->
<!DOCTYPE svg PUBLIC "-//W3C//DTD SVG 1.1//EN" "http://www.w3.org/Graphics/SVG/1.1/DTD/svg11.dtd">
<svg version="1.1" id="Layer_1" xmlns="http://www.w3.org/2000/svg" xmlns:xlink="http://www.w3.org/1999/xlink" x="0px" y="0px"
	 width="20px" height="20px" viewBox="0 0 20 20" enable-background="new 0 0 20 20" xml:space="preserve">
<circle fill="#FFFF66" cx="10.1" cy="10" r="9.5"/>
<g>
	<g>
		<g>
			<path d="M10,20C4.5,20,0,15.5,0,10C0,4.5,4.5,0,10,0c5.5,0,10,4.5,10,10C20,15.5,15.5,20,10,20z M10,0.9C5,0.9,0.9,5,0.9,10
				c0,5,4.1,9.1,9.1,9.1c5,0,9.1-4.1,9.1-9.1C19.1,5,15,0.9,10,0.9z"/>
		</g>
		<g>
			<circle cx="6.1" cy="8.3" r="1.8"/>
		</g>
		<g>
			<circle cx="13.8" cy="8.3" r="1.8"/>
		</g>
	</g>
	<g>
		<path d="M5.9,12c0.3,2,2.1,3.5,4.2,3.5s3.8-1.5,4.2-3.5H5.9z"/>
	</g>
</g>
</svg>
