<?xml version="1.0" encoding="utf-8"?>
<!-- Generator: Adobe Illustrator 16.2.0, SVG Export Plug-In . SVG Version: 6.00 Build 0)  -->
<!DOCTYPE svg PUBLIC "-//W3C//DTD SVG 1.1//EN" "http://www.w3.org/Graphics/SVG/1.1/DTD/svg11.dtd">
<svg version="1.1" id="Layer_1" xmlns="http://www.w3.org/2000/svg" xmlns:xlink="http://www.w3.org/1999/xlink" x="0px" y="0px"
	 width="20px" height="20px" viewBox="0 0 20 20" enable-background="new 0 0 20 20" xml:space="preserve">
<circle fill="#FFFF66" cx="10" cy="10.1" r="9.5"/>
<g>
	<g>
		<g>
			<path d="M10,20C4.5,20,0,15.5,0,10S4.5,0,10,0s10,4.5,10,10S15.5,20,10,20z M10,0.9C5,0.9,0.9,5,0.9,10S5,19.1,10,19.1
				s9.1-4.1,9.1-9.1S15,0.9,10,0.9z"/>
		</g>
		<g>
			<circle cx="6.1" cy="8.3" r="1.8"/>
		</g>
		<g>
			<circle cx="13.8" cy="8.3" r="1.8"/>
		</g>
	</g>
	<g>
		<path d="M9.9,12.4c1.5,0,2.6,1.6,3.2,2.6H14c-0.3-2-2.1-3.5-4.2-3.5C7.7,11.5,6,13,5.7,15h0.8C7.1,14,8.4,12.4,9.9,12.4z"/>
	</g>
</g>
</svg>
